<svg width="560" height="804" viewBox="0 0 560 804" fill="none" xmlns="http://www.w3.org/2000/svg">
<path d="M331 752C315.631 735.862 329.667 710.167 353.5 706L370.5 698.5H399.5L418 693.5C433 693 464.5 692.3 470.5 693.5C476.5 694.7 473 713.667 470.5 723C463 726.667 442 736.1 418 744.5C388 755 351 773 331 752Z" fill="#3F0097"/>
<path d="M492.5 620.5C489.5 621 489.5 649.5 489.5 649.5C483 649.5 482.3 658.6 475.5 651C467 641.5 436.546 627.129 405.5 641C382 651.5 378 672.5 383 688.5C383.625 690.5 382 692.5 372.5 692.5C363.768 692.5 349.5 702.5 349.5 712C349.5 716.5 348.412 728.608 368 734C393.5 740 433.705 738.534 428.5 725C423.5 712 397.5 727.406 383 725C362.687 721.63 361.762 711.492 368.5 707C374.5 703 384.5 705 396.5 708.5C408.5 712 405.5 715 428.5 716.5C451.5 718 459.5 705.5 481.5 699C503.5 692.5 519 688.5 519 688.5C519 688.5 527 690.563 539.5 686.5C555.5 681.3 552.166 659 548.5 649.5C548.5 649.5 546.5 621 544 621C539.5 621 529.5 640 529.5 640C529.5 640 513.5 639.167 510 641C510 641 495.5 620 492.5 620.5Z" fill="#28005F"/>
<path d="M340.5 864.5C446.759 882.544 449.193 762.275 529.184 747.238C584.5 720.5 557.781 712.887 455.5 727C347.5 764 315.5 774.735 262 759C224.441 747.953 251.5 720.5 251.5 720.5C251.5 720.5 186.265 673.596 133 679C63.2843 686.073 -58 692 -58 767.5C-57.9999 902.231 207.676 841.945 340.5 864.5Z" fill="#3F0097"/>
<path d="M202.345 729.142C279.775 729.142 342.546 669.256 342.546 595.382C342.546 521.509 279.775 461.622 202.345 461.622C124.914 461.622 62.1437 521.509 62.1437 595.382C62.1437 669.256 124.914 729.142 202.345 729.142Z" fill="#8041E3"/>
<mask id="mask0" mask-type="alpha" maskUnits="userSpaceOnUse" x="62" y="462" width="281" height="268">
<path d="M202.201 729.52C279.632 729.52 342.402 669.634 342.402 595.76C342.402 521.886 279.632 462 202.201 462C124.77 462 62 521.886 62 595.76C62 669.634 124.77 729.52 202.201 729.52Z" fill="#8041E3"/>
</mask>
<g mask="url(#mask0)">
</g>
<path fill-rule="evenodd" clip-rule="evenodd" d="M467.286 708.505C443.957 656.896 427.086 611.958 420.313 588.248C408.718 547.652 399.896 511.929 397.667 498.589C392.35 466.776 438.565 464.924 444.674 480.734C453.92 504.663 470.061 583.285 489.455 702.04L467.286 708.505ZM196.679 546.543C218.084 538.087 293.042 511.623 329.194 504.136C339.583 501.985 349.652 499.986 359.118 498.18C387.257 492.811 401.835 543.548 374.734 547.446C307.243 557.155 211.563 567.18 203.375 568.305C191.899 569.882 183.227 551.858 196.679 546.543Z" fill="#FFCC9D"/>
<path fill-rule="evenodd" clip-rule="evenodd" d="M376.389 484.218L260.61 425.31V412.486H274.379C386.39 441.013 443.627 459.296 446.091 467.333C446.118 467.419 446.142 467.506 446.164 467.592C446.221 467.666 446.276 467.741 446.331 467.815C468.529 498.329 481.823 647.297 486.187 658.452L443.65 664.794C427.378 604.488 375.32 562.476 376.703 490.247C376.329 488.128 376.235 486.119 376.389 484.218Z" fill="#E87613"/>
<path fill-rule="evenodd" clip-rule="evenodd" d="M270.229 519.203C259.636 517.084 249.881 515.192 241.533 513.729C187.613 504.276 171.89 475.428 181.186 412.486L280.533 412.486C296.761 417.145 381.099 452.495 424.857 471.297C453.819 483.741 444.689 528.601 428.288 540.276C428.199 540.992 427.904 541.478 427.378 541.696C339.153 578.244 269.359 559.067 246.044 565.195L235.259 531.193L270.229 519.203Z" fill="#FF9B21"/>
<path fill-rule="evenodd" clip-rule="evenodd" d="M203.993 541.138C198.214 541.69 194.111 542.557 191.685 543.739C188.734 545.178 184.669 547.768 179.487 551.51C181.157 554.932 196.166 585.685 224.512 643.77C233.611 642.303 237.215 638.832 235.327 633.359C233.438 627.885 231.915 623.316 230.757 619.651L228.952 567.448C228.917 566.444 228.074 565.657 227.069 565.692C227.052 565.693 227.035 565.693 227.018 565.694L218.985 566.198C214.419 562.504 211.407 559.162 209.948 556.173C208.763 553.744 208.107 549.911 207.981 544.674L207.981 544.674C207.932 542.665 206.263 541.074 204.253 541.122C204.166 541.124 204.08 541.129 203.993 541.138Z" fill="white"/>
<path fill-rule="evenodd" clip-rule="evenodd" d="M456.669 698.936C454.632 704.371 453.614 708.438 453.614 711.136C453.614 714.418 454.161 719.207 455.255 725.503C459.064 725.503 493.296 725.503 557.951 725.503C560.619 716.684 559.079 711.924 553.329 711.221C547.579 710.518 542.803 709.883 539 709.316L491.268 688.048C490.349 687.638 489.273 688.051 488.863 688.969C488.856 688.985 488.85 689 488.843 689.016L485.775 696.455C480.452 698.937 476.127 700.178 472.799 700.178C470.095 700.178 466.361 699.087 461.597 696.904L461.597 696.904C459.769 696.066 457.607 696.869 456.769 698.696C456.733 698.775 456.7 698.855 456.669 698.936Z" fill="white"/>
<path fill-rule="evenodd" clip-rule="evenodd" d="M294.057 185.773C288.307 174.197 285.723 161.124 289.915 148.244C301.993 111.135 352.498 132.568 357.967 154.185C363.436 175.802 350.15 223.855 336.081 223.963C330.471 224.006 320.072 217.874 310.362 208.132L304.867 260.676L262.508 250.102L294.057 185.773Z" fill="#FFCC9D"/>
<path fill-rule="evenodd" clip-rule="evenodd" d="M339.308 126.187C333.954 123.878 319.079 119.496 316.306 118.804C314.535 118.362 312.514 118.288 311.871 116.399C311.344 114.853 312.221 112.678 312.351 111.069C312.501 109.199 312.521 107.32 312.534 105.446C312.573 100.111 311.927 94.8646 310.473 89.7278C307.744 80.0903 302.313 71.7188 294.334 65.6447C285.522 58.9376 274.596 55.1779 263.764 53.3884C252.172 51.473 240.951 52.6564 229.342 53.5083C218.28 54.3199 207.243 52.9711 196.961 48.6598C186.602 44.3161 179.92 36.4458 172.217 28.6362C164.331 20.6411 154.627 14.2772 143.418 12.3853C132.955 10.6194 122.436 12.4962 112.535 16.0392C103.271 19.3542 95.1276 24.0918 89.189 32.1383C82.8007 40.7938 80.1605 51.386 84.5765 61.5471C90.9771 76.2756 107.79 83.8679 122.52 87.2074C131.041 89.1395 139.75 89.6701 148.453 88.8533C160.06 87.7637 170.869 83.7042 182.139 81.0349C187.429 79.7824 192.767 79.002 198.201 78.8362C203.473 78.6746 208.484 79.2476 212.201 83.3361C216.132 87.6614 219.588 91.8086 224.493 95.1262C229.198 98.3089 234.418 100.735 239.945 102.069C250.698 104.665 262.112 103.962 273.095 104.324C282.051 104.62 291.6 105.07 299.827 108.989C303.26 110.624 308.165 113.455 308.533 117.539C285.556 116.036 270.137 141.066 271.352 162.57C272.008 174.176 288.97 191.786 298.201 188.075C304.048 185.723 302.217 180.263 301.048 176.668C298.808 169.784 299.442 161.818 307.372 159.394C314.212 157.303 318.346 167.354 318.466 167.375C320.133 167.654 336.252 163.191 348.893 153.964C358.351 156.93 361.388 150.963 360.388 145.214C359.387 139.465 346.706 129.378 339.308 126.187Z" fill="#191847"/>
<path fill-rule="evenodd" clip-rule="evenodd" d="M365.932 400.298L400.643 463.369C413.133 473.844 422.838 484.169 429.758 494.346C431.064 497.457 431.862 502.901 422.813 497.827C413.763 492.753 404.017 487.823 401.237 490.423C398.458 493.023 402.361 499.485 397.741 502.589C394.66 504.659 389.765 493.616 383.055 469.461L340.953 423.666L365.932 400.298ZM145 340.655L181.334 351.838C136.867 417.529 113.065 452.321 109.928 456.214C102.871 464.974 106.781 482.764 107.946 492.04C94.462 493.749 101.698 474.459 84.6073 476.882C69.0079 479.092 55.1124 487.46 42.277 472.922C40.6989 471.134 39.9403 465.978 46.151 464.013C61.6242 459.118 84.7458 449.349 88.7751 445.047C94.2698 439.18 113.012 404.382 145 340.655Z" fill="#FFCC9D"/>
<path fill-rule="evenodd" clip-rule="evenodd" d="M294.703 219.39L310.539 221.376C316.806 293.979 344.198 366.533 392.716 439.039L325.928 483.512C284.224 388.583 268.013 298.781 294.703 219.39Z" fill="#191847"/>
<path fill-rule="evenodd" clip-rule="evenodd" d="M171.676 388.636L305.712 429.315C297.574 344.387 301.514 275.536 317.531 222.76L278.928 204.465C231.642 245.926 203.572 306.123 171.676 388.636Z" fill="#DDE3E9"/>
<path fill-rule="evenodd" clip-rule="evenodd" d="M278.063 204.234C278.071 204.226 278.079 204.218 278.087 204.21L280.727 205.011C283.852 206.078 288.602 207.734 294.979 209.979L296.275 240.864C286.977 275.218 272.192 345.651 251.919 452.163L164.056 425.496C162.124 432.691 160.321 439.998 158.647 447.417L93.317 427.589C136.55 320.304 198.124 245.84 278.039 204.196L278.063 204.234L278.063 204.234Z" fill="#2F3676"/>
<path fill-rule="evenodd" clip-rule="evenodd" d="M197.529 336.091C186.55 381.264 183.518 413.782 188.434 433.644L163.87 426.189C172.493 393.908 183.713 363.875 197.529 336.091L197.529 336.091Z" fill="black" fill-opacity="0.1"/>
<path fill-rule="evenodd" clip-rule="evenodd" d="M199.782 378.155L249.22 371.163L243.107 391.304L199.782 378.155Z" fill="white" fill-opacity="0.2"/>
</svg>
