<svg width="647" height="749" viewBox="0 0 647 749" fill="none" xmlns="http://www.w3.org/2000/svg">
<path d="M2.99997 802C58.4996 954 404.5 894.5 578.5 673.001C581.76 668.851 527.022 668.001 482 673.001C435 713.001 200 798.501 169.5 788.001C362.5 734.001 400.435 676.266 391.5 673.001C365.5 663.5 309.4 666.354 293.5 673.001C285.635 676.289 225.741 700.032 122 716.5C16.0326 733.321 -8.62368 770.166 2.99997 802Z" fill="#3F0097"/>
<path fill-rule="evenodd" clip-rule="evenodd" d="M488.967 291.12L430.851 494.937L388.449 645.161H357.523L376.616 467.754L419.498 291.12H488.967Z" fill="#191847"/>
<path fill-rule="evenodd" clip-rule="evenodd" d="M504.509 291.12C505.853 396.17 510.437 453.467 511.848 463.011C513.26 472.555 534.6 533.272 575.87 645.161H543.833C491.293 537.823 461.964 477.106 455.846 463.011C449.727 448.916 430.846 391.619 402.406 291.12H504.509Z" fill="#2F3676"/>
<path fill-rule="evenodd" clip-rule="evenodd" d="M578.734 673.997L577.131 640.355H543.468C527.507 651.569 506.668 660.647 480.952 667.589V673.997H541.865L562.704 670.793V673.997H578.734Z" fill="#191847"/>
<path fill-rule="evenodd" clip-rule="evenodd" d="M392.789 673.997L391.186 640.355H357.523C341.561 651.569 320.723 660.647 295.007 667.589V673.997H355.92L376.759 670.793V673.997H392.789Z" fill="#191847"/>
<path fill-rule="evenodd" clip-rule="evenodd" d="M467.4 69.0074C475.974 58.6925 481.708 46.1094 480.554 32.1018C477.228 -8.25776 421.106 1.31238 410.417 21.8329C399.727 42.3534 401.655 94.052 415.836 97.5239C421.491 98.9085 433.457 95.2028 445.591 87.6868L438.579 142.057L483.88 141.506L467.4 69.0074Z" fill="#FFCC9D"/>
<path fill-rule="evenodd" clip-rule="evenodd" d="M443.74 37.1817C442.3 61.3579 437.86 73.4912 430.42 73.5817C419.259 73.7175 409.704 66.7475 404.807 66.8071C401.237 66.8505 402.089 71.308 404.495 74.5914C406.481 77.3002 416.02 79.8185 416.071 84.055C416.123 88.2914 408.571 85.1053 408.602 87.6178C408.653 91.7739 407.428 99.6042 414.641 99.5164C421.941 99.4276 442.839 96.5127 446.294 85.6345C448.524 78.6139 449.845 64.1063 450.256 42.1114C450.698 42.0534 451.149 42.0208 451.606 42.0153C457.86 41.9392 462.992 46.948 463.068 53.2027C463.107 56.378 461.835 59.2639 459.755 61.3459C462.421 65.0128 465.405 68.841 468.818 72.7871C481.369 65.0483 490.48 42.7298 477.861 21.5497C474.317 11.1419 466.515 5.65449 457.349 3.17396C449.912 0.168809 442.227 -0.0867434 435.765 1.84764C423.068 3.09247 411.765 7.10629 408.577 9.44713C408.723 21.4806 411.098 25.0225 431.01 24.4655C435.935 26.9904 439.751 31.3949 443.74 37.1817Z" fill="#191847"/>
<path fill-rule="evenodd" clip-rule="evenodd" d="M332.308 282.458L276.437 325.837C261.103 330.406 248.334 335.932 238.132 342.415C235.741 344.714 232.898 349.32 243.026 348.281C253.154 347.243 263.854 346.608 265.342 350.047C266.83 353.485 260.793 357.793 263.741 362.409C265.707 365.486 274.425 357.427 289.895 338.233L345.676 313.358L332.308 282.458ZM550.909 278.411L513.619 279.496C538.521 353.513 551.948 392.781 553.898 397.3C558.285 407.466 549.94 423.326 546.414 431.825C558.723 436.985 556.917 416.777 572.451 423.559C586.629 429.75 597.587 441.336 613.526 430.904C615.486 429.621 617.551 424.926 612.189 421.431C598.831 412.726 579.512 397.389 576.824 392.248C573.159 385.238 564.521 347.292 550.909 278.411Z" fill="#FFCC9D"/>
<path fill-rule="evenodd" clip-rule="evenodd" d="M440.98 124.037L425.481 121.769C369.473 172.843 348.353 268.789 279.442 321.066L296.862 341.654C418.234 323.465 445.487 206.397 440.98 124.037Z" fill="#E87613"/>
<path fill-rule="evenodd" clip-rule="evenodd" d="M513.142 316.957C451.267 318.512 405.753 319.656 376.6 320.389C370.361 320.546 371.309 311.476 372.097 306.891C381.182 253.976 420.389 196.198 418.505 121.248L457.735 114.061C491.633 165.819 504.526 230.269 513.142 316.957Z" fill="#DDE3E9"/>
<path fill-rule="evenodd" clip-rule="evenodd" d="M508.212 164.505C513.89 162.712 518.323 158.749 521.511 152.618C535.251 126.19 529.691 111.969 514.189 107.639C498.686 103.308 485.211 113.37 460.7 113.986C459.367 114.02 458.148 114.134 457.043 114.33L444.732 115.346C412.381 236.547 404.643 317.063 421.517 356.892L528.986 354.191C535.728 368.931 542.136 381.314 548.21 391.34L577.494 390.604C578.002 301.111 554.908 225.745 508.212 164.505Z" fill="#FF9B21"/>
<path fill-rule="evenodd" clip-rule="evenodd" d="M504.03 292.99C501.364 321.454 496.388 342.188 489.103 355.193L528.985 354.191C521.121 336.997 512.803 316.597 504.03 292.99Z" fill="black" fill-opacity="0.1"/>
</svg>
