<svg width="1920" height="552" viewBox="0 0 1920 552" fill="none" xmlns="http://www.w3.org/2000/svg">
<path fill-rule="evenodd" clip-rule="evenodd" d="M1822.97 387.249C1824.81 372.77 1817.91 355.983 1810.06 339.604C1794.77 307.72 1787.36 289.336 1793.01 260.992C1796.33 244.322 1800.07 226.802 1789.5 206.229C1781.81 191.248 1764.55 171.61 1744.9 165.9C1713.62 158.726 1694.39 173.378 1685.77 192.119C1675.09 215.348 1682.57 238.859 1708.22 266.747C1722.68 282.459 1730.41 295.779 1733.22 312.021C1735.47 325.01 1733.25 337.986 1737.93 351.482C1744.91 371.658 1759.42 388.078 1782.41 400.505C1777.16 363.952 1768.6 324.934 1752.59 286.589C1751.18 282.865 1740.21 264.964 1745.6 263.709C1751.54 262.328 1758.8 286.834 1758.74 286.675C1763.23 298.07 1766.85 309.428 1770.29 320.756C1770.27 320.749 1770.25 320.738 1770.22 320.731C1773.78 332.372 1777.21 344.068 1780.44 355.751C1781.67 360.6 1782.79 365.432 1783.73 370.252C1785.12 377.325 1783.79 393.96 1788.94 401.119C1790.04 402.651 1791.2 403.859 1792.39 404.822C1793.98 412.648 1795.42 420.43 1796.6 428.122C1799.69 448.211 1800.7 467.955 1795.83 485.18C1794.41 490.207 1783.29 505.217 1785.93 511.243C1790.76 522.263 1795.23 510.036 1796.82 506.503C1809.96 477.239 1809.31 444.567 1801.5 407.642C1812 406.586 1822.22 393.114 1822.97 387.249Z" fill="white"/>
<path fill-rule="evenodd" clip-rule="evenodd" d="M1525.79 211.385C1538.91 210.722 1561 223.585 1573.78 232.557C1589.61 243.659 1604.63 256.943 1618.09 269.936C1640.27 291.338 1659.13 316.268 1675.86 339.407C1677.87 342.196 1702.97 376.16 1698.63 376.404C1694.32 376.646 1671.34 340.766 1665.74 333.508C1653.78 318.019 1643.75 302.385 1629.01 287.689C1613.76 272.472 1596.04 258.813 1577.4 246.781C1575.01 245.237 1567.9 239.132 1566.31 241.2C1564.76 243.223 1578.35 250.516 1580.61 252.011C1589.94 258.184 1599.01 264.888 1607.59 271.924C1623.67 285.108 1637.46 299.522 1648.49 315.01C1640.47 318.249 1628.77 314.511 1619.34 306.231C1611.19 299.073 1604.5 290.18 1596.3 283.514C1590.65 278.924 1584.34 275.334 1577.77 272.549C1560.45 265.203 1547.78 265.064 1533.33 249.961C1522 238.121 1506.95 212.349 1525.79 211.385Z" fill="white"/>
<path fill-rule="evenodd" clip-rule="evenodd" d="M1575.85 156.72L1580.06 159.467C1581.92 155.977 1583.69 152.435 1584.91 148.586C1589.52 134.157 1590.67 109.302 1568.79 92.1722C1567.98 91.5395 1564.84 89.4717 1560.94 87.1184C1559.54 85.3216 1557.76 83.6268 1555.68 82.1483C1536.53 68.3633 1508.13 63.6939 1491.99 67.601C1478.98 70.7518 1473.27 82.3188 1472.34 94.0911C1471.72 101.973 1473.24 114.78 1484.74 122.41C1499.13 131.955 1506.96 121.491 1511.41 115.291C1517.33 107.047 1523.91 100.8 1538.63 102.164C1542.06 102.483 1545.62 103.119 1549.07 103.473C1554.46 104.028 1560.31 104.81 1563.08 101.709C1566.9 97.4299 1563.07 93.7108 1555.8 90.2188C1554.56 89.6232 1541 85.265 1544.33 83.8852C1545.35 83.4634 1547.64 84.1003 1550.33 85.2135C1556.8 88.8517 1564.51 93.2038 1566.45 94.8785C1587.38 112.94 1583.62 138.192 1577.93 152.079C1577.29 153.652 1576.59 155.194 1575.85 156.72L1575.85 156.72Z" fill="white"/>
<path fill-rule="evenodd" clip-rule="evenodd" d="M59.8389 290.057C62.8546 278.671 73.1154 268.216 83.9602 258.355C105.072 239.157 116.199 227.664 120.585 204.756C123.165 191.284 125.688 177.048 139.839 164.876C150.142 156.012 169.01 146.57 185.435 148.269C211.002 152.405 220.931 169.201 221.682 185.831C222.613 206.442 209.88 221.75 182.227 234.809C166.645 242.165 156.819 249.776 149.786 261.067C144.159 270.096 141.877 280.472 134.285 289.143C122.933 302.106 107.097 309.976 86.134 312.285C101.165 286.552 119.41 259.976 143.026 236.169C145.212 233.812 158.855 223.761 155.204 221.185C151.183 218.349 138.31 234.466 138.404 234.366C131.587 241.522 125.43 248.915 119.416 256.339C119.435 256.341 119.457 256.34 119.478 256.342C113.282 263.965 107.162 271.668 101.198 279.421C98.8093 282.675 96.5049 285.948 94.3346 289.265C91.1501 294.133 87.095 306.975 81.0674 310.763C79.7778 311.573 78.547 312.125 77.3658 312.484C73.797 317.852 70.355 323.232 67.1354 328.624C58.7275 342.707 51.9732 357.162 50.3813 371.519C49.917 375.71 53.6763 390.311 49.8697 394.014C42.9103 400.786 43.2864 390.288 43.1714 387.164C42.2323 361.292 52.6414 337.061 69.6973 311.825C62.1666 307.847 58.6181 294.671 59.8389 290.057Z" fill="white"/>
<path fill-rule="evenodd" clip-rule="evenodd" d="M335.442 248.822C325.836 244.342 305.415 247.252 293.13 250.077C277.929 253.572 262.663 258.942 248.649 264.567C225.565 273.833 203.898 286.747 184.36 298.966C182.006 300.439 152.925 318.211 156.1 319.713C159.245 321.202 187.324 301.353 193.718 297.629C207.362 289.679 219.611 281.037 235.091 274.524C251.119 267.779 268.519 262.95 286.107 259.614C288.364 259.186 295.529 256.778 296.091 258.808C296.64 260.793 284.264 262.119 282.12 262.55C273.267 264.331 264.449 266.588 255.897 269.244C239.873 274.219 225.181 280.806 212.233 289.037C217.243 293.893 227.127 294.653 236.691 291.325C244.957 288.448 252.661 283.831 260.818 281.338C266.436 279.621 272.247 278.855 278.003 278.767C293.185 278.536 302.698 282.279 318.092 275.376C330.16 269.965 349.24 255.267 335.442 248.822Z" fill="white"/>
<path fill-rule="evenodd" clip-rule="evenodd" d="M314.615 192.745L310.636 193.523C310.306 190.349 310.061 187.163 310.311 183.912C311.252 171.726 317.936 152.791 339.503 146.631C340.299 146.403 343.273 145.81 346.904 145.235C348.499 144.318 350.344 143.591 352.345 143.116C370.855 138.627 393.508 143.762 404.387 151.584C413.158 157.892 413.916 168.275 411.033 177.358C409.103 183.44 404.078 192.554 393.161 194.765C379.503 197.532 376.826 187.33 375.382 181.342C373.462 173.382 370.436 166.712 359.015 163.261C356.353 162.457 353.497 161.85 350.815 161.069C346.614 159.846 342.003 158.655 340.876 155.495C339.32 151.136 343.311 149.518 349.808 149.115C350.915 149.046 362.375 149.905 360.304 147.862C359.671 147.238 357.764 147.018 355.414 147.033C349.473 147.788 342.39 148.702 340.431 149.365C319.298 156.513 314.437 176.535 314.472 188.646C314.476 190.017 314.532 191.383 314.615 192.745L314.615 192.745Z" fill="white"/>
</svg>
