<svg width="447" height="332" viewBox="0 0 447 332" fill="none" xmlns="http://www.w3.org/2000/svg">
<path fill-rule="evenodd" clip-rule="evenodd" d="M59.8389 200.057C62.8546 188.671 73.1154 178.216 83.9602 168.355C105.072 149.157 116.199 137.664 120.585 114.756C123.165 101.284 125.688 87.0482 139.839 74.8757C150.142 66.0118 169.01 56.5701 185.435 58.2687C211.002 62.405 220.931 79.2012 221.682 95.8308C222.613 116.442 209.88 131.75 182.227 144.809C166.645 152.165 156.819 159.776 149.786 171.067C144.159 180.096 141.877 190.472 134.285 199.143C122.933 212.106 107.097 219.976 86.134 222.285C101.165 196.552 119.41 169.976 143.026 146.169C145.212 143.812 158.855 133.761 155.204 131.185C151.183 128.349 138.31 144.466 138.404 144.366C131.587 151.522 125.43 158.915 119.416 166.339C119.435 166.341 119.457 166.34 119.478 166.342C113.282 173.965 107.162 181.668 101.198 189.421C98.8093 192.675 96.5049 195.948 94.3346 199.265C91.1501 204.133 87.095 216.975 81.0674 220.763C79.7778 221.573 78.547 222.125 77.3658 222.484C73.797 227.852 70.355 233.232 67.1354 238.624C58.7275 252.707 51.9732 267.162 50.3813 281.519C49.917 285.71 53.6763 300.311 49.8697 304.014C42.9103 310.786 43.2864 300.288 43.1714 297.164C42.2323 271.292 52.6414 247.061 69.6973 221.825C62.1666 217.847 58.6181 204.671 59.8389 200.057Z" fill="white"/>
<path fill-rule="evenodd" clip-rule="evenodd" d="M335.442 158.822C325.836 154.342 305.415 157.252 293.13 160.077C277.929 163.572 262.663 168.942 248.649 174.567C225.565 183.833 203.898 196.747 184.36 208.966C182.006 210.439 152.925 228.211 156.1 229.713C159.245 231.202 187.324 211.353 193.718 207.629C207.362 199.679 219.611 191.037 235.091 184.524C251.119 177.779 268.519 172.95 286.107 169.614C288.364 169.186 295.529 166.778 296.091 168.808C296.64 170.793 284.264 172.119 282.12 172.55C273.267 174.331 264.449 176.588 255.897 179.244C239.873 184.219 225.181 190.806 212.233 199.037C217.243 203.893 227.127 204.653 236.691 201.325C244.957 198.448 252.661 193.831 260.818 191.338C266.436 189.621 272.247 188.855 278.003 188.767C293.185 188.536 302.698 192.279 318.092 185.376C330.16 179.965 349.24 165.267 335.442 158.822Z" fill="white"/>
<path fill-rule="evenodd" clip-rule="evenodd" d="M314.615 102.745L310.636 103.523C310.306 100.349 310.061 97.1634 310.311 93.9123C311.252 81.7257 317.936 62.7912 339.503 56.6309C340.299 56.403 343.273 55.8099 346.904 55.2349C348.499 54.3177 350.344 53.5909 352.345 53.1159C370.855 48.6274 393.508 53.7619 404.387 61.5844C413.158 67.8916 413.916 78.2749 411.033 87.3584C409.103 93.4397 404.078 102.554 393.161 104.765C379.503 107.532 376.826 97.3302 375.382 91.3425C373.462 83.382 370.436 76.7117 359.015 73.2606C356.353 72.4568 353.497 71.8502 350.815 71.0688C346.614 69.8462 342.003 68.6549 340.876 65.4953C339.32 61.1362 343.311 59.5177 349.808 59.1151C350.915 59.0463 362.375 59.9049 360.304 57.8617C359.671 57.2375 357.764 57.0175 355.414 57.0325C349.473 57.7883 342.39 58.7021 340.431 59.3651C319.298 66.5131 314.437 86.5349 314.472 98.6455C314.476 100.017 314.532 101.383 314.615 102.745L314.615 102.745Z" fill="white"/>
</svg>
