<svg width="886" height="644" viewBox="0 0 886 644" fill="none" xmlns="http://www.w3.org/2000/svg">
<path fill-rule="evenodd" clip-rule="evenodd" d="M793.594 165.039C792.98 164.592 791.522 164.434 790.844 164.3C788.027 163.745 785.124 163.503 782.251 163.503C773.393 163.516 764.391 164.386 755.68 165.891C750.149 166.846 743.463 170.061 737.961 168.315C728.376 165.273 718.689 165.422 709.595 169.765C701.281 173.737 694.97 181.28 691.286 189.43C690.731 190.66 688.476 195.188 687.838 198.241C687.565 198.865 687.303 199.494 687.067 200.131C686.396 201.942 685.795 203.785 685.236 205.631C684.997 206.419 684.396 208.158 685.109 208.494C683.97 210.597 682.96 212.764 682.118 215.002C679.672 221.51 676.996 228.648 676.137 235.545C675.818 238.099 675.806 240.668 676.102 243.227C676.248 244.491 676.188 247.035 677.045 247.996C678.865 250.037 679.799 247.18 679.594 245.82C678.027 235.449 681.052 225.711 684.637 215.963C686.956 209.66 690.765 203.893 695.032 198.67C698.485 194.443 702.19 191.114 706.923 188.311C712.712 184.884 718.901 182.113 725.033 179.334C729.066 177.505 733.104 175.725 737.25 174.15C738.171 173.799 739.622 172.9 740.644 172.897C742.805 172.889 745.869 174.484 747.956 175.077C754.824 177.03 761.779 179.529 768.876 180.526C773.428 181.167 777.693 180.446 781.951 178.929C782.386 178.775 783.115 178.377 784.008 177.808C787.169 176.592 790.159 175.062 792.763 172.854C794.263 171.582 795.624 169.938 796.865 168.434C797.237 167.984 797.401 167.468 797.406 166.978C797.688 166.831 797.874 166.659 797.917 166.459C798.226 164.978 795.402 164.951 793.594 165.039Z" fill="#E88080"/>
<path fill-rule="evenodd" clip-rule="evenodd" d="M74.0062 288.48C72.2683 289.887 70.5639 291.325 68.901 292.82C67.6337 293.96 65.3909 295.325 64.9359 297.052C64.463 298.846 65.9561 300.526 67.1356 301.611C73.3729 307.35 80.3963 311.229 89.0392 311.874C102.347 312.868 113.929 309.47 125.475 302.783C133.586 298.085 138.959 291.137 140.132 281.755C149.791 285.77 159.133 291.303 167.072 298.094C170.989 301.445 174.363 305.158 177.484 309.273C179.482 311.909 181.416 314.588 183.21 317.369C183.99 318.578 184.782 320.721 186.07 321.417C187.582 322.235 189.408 320.953 189.333 319.272C189.271 317.874 187.761 316.251 187.055 315.108C185.881 313.209 184.691 311.323 183.437 309.476C181.409 306.487 179.312 303.539 177.025 300.741C171.886 294.455 165.347 289.263 158.568 284.835C145.564 276.339 131.292 270.988 115.469 270.534C105.739 270.255 97.5546 273.579 89.2343 278.544C84.0542 281.634 78.7068 284.673 74.0062 288.48Z" fill="#FFADAD"/>
<path fill-rule="evenodd" clip-rule="evenodd" d="M200.214 247.391C190.075 236.949 179.901 226.638 168.573 217.443C161.897 212.026 154.861 207.099 147.971 201.962C148.766 202.658 149.546 203.375 150.307 204.109C148.156 202.649 145.34 201.824 143.06 200.472C140.516 198.965 138.085 197.24 135.7 195.502C131.045 192.11 126.46 188.654 121.675 185.439C116.344 181.857 110.819 178.547 105.397 175.101C100.795 172.175 96.1372 168.974 91.2144 166.582C88.5314 165.279 85.842 163.734 83.148 162.374C82.2463 161.92 73.0974 156.143 73.1204 156.125C73.6262 155.744 78.2301 157.907 78.942 158.198C81.0219 159.048 83.0108 160.064 85.0105 161.077C83.9129 158.912 83.0441 156.638 82.5712 154.243C82.4251 153.504 81.2546 148.125 81.8535 147.673C82.1527 147.448 85.0716 157.073 85.221 157.998C85.3425 158.75 85.3247 159.833 85.5707 160.544C85.968 161.694 85.9479 161.347 86.8231 161.994C88.4271 163.181 90.5562 163.923 92.2922 164.915C93.2283 165.438 96.1266 167.51 97.8724 168.101C103.155 170.666 108.509 174.613 113.527 177.89C112.21 175.415 111.208 172.826 110.477 170.114C110.303 169.47 108.427 163.692 108.882 163.349C109.394 162.964 112.969 171.787 113.18 172.622C113.574 174.174 113.655 175.901 114.148 177.411C114.688 179.068 116.375 179.655 117.895 180.621C123.488 184.174 128.889 187.95 134.199 191.899C139.994 181.593 133.313 169.148 127.681 160.501C123.622 154.269 118.158 148.926 112.388 144.261C104.688 138.036 95.8783 133.063 87.0792 128.514C76.8265 123.213 65.7451 119.929 54.2246 118.411C48.1992 117.618 42.0348 117.64 35.9486 117.895C32.9754 118.019 30.1216 118.412 27.2723 119.382C25.9882 119.82 24.7471 120.371 23.5376 120.989C22.6187 121.458 20.3957 121.953 19.8674 122.652C15.518 128.313 13.293 133.954 13.6328 141.067C13.9541 147.801 16.0808 154.538 18.9669 160.545C22.1811 167.233 26.315 173.303 31.7215 178.398C35.8463 182.285 40.458 185.668 45.0392 189.007C61.3332 200.882 81.9911 211.21 103.095 208.556C109.926 207.698 116.423 205.309 122.495 202.062C123.926 201.298 125.348 200.524 126.698 199.62C127.609 199.012 130.043 196.268 130.959 196.168C132.215 196.032 134.919 198.585 136.097 199.363C145.048 205.271 153.764 211.5 162.298 217.98C171.377 224.876 180.011 232.24 188.391 239.95C191.955 243.23 195.496 246.517 198.957 249.906C199.762 250.695 201.733 253.599 203.193 253.73C204.117 253.814 204.74 253.025 204.608 252.17C204.379 250.684 201.252 248.46 200.214 247.391Z" fill="#FFADAD"/>
<path fill-rule="evenodd" clip-rule="evenodd" d="M782.949 206.865C779.022 206.007 774.685 206.073 770.684 206.144C749.229 206.436 728.161 216.594 714.449 232.824C702.776 246.642 699.566 263.821 697.26 281.187C697.031 282.911 696.933 284.624 696.804 286.352C696.776 286.723 696.735 287.054 696.691 287.365C695.784 288.176 695.308 289.121 695.845 290.16C693.847 294.532 692.157 299.015 690.707 303.639C686.438 317.248 682.097 331.117 684.771 345.429C685.396 337.553 686.71 329.499 688.282 321.753C688.373 321.308 688.47 320.867 688.572 320.428C688.583 320.381 688.592 320.335 688.603 320.289C689.159 317.917 689.882 315.615 690.762 313.351C690.771 313.326 690.78 313.301 690.79 313.277C690.906 312.979 691.029 312.682 691.151 312.386C691.403 311.772 691.662 311.16 691.936 310.55C692.029 310.342 692.118 310.133 692.204 309.922C693.484 306.783 694.025 303.247 695.173 299.999C695.447 299.261 695.734 298.525 696.034 297.793C696.052 297.75 696.07 297.707 696.088 297.664C696.901 295.695 697.798 293.75 698.748 291.825C699.264 291.438 699.539 290.476 699.984 289.602C700.076 289.429 700.795 288.281 701.009 287.619C701.568 286.538 702.125 285.456 702.688 284.377C702.671 284.383 702.655 284.389 702.638 284.395C703.201 283.359 703.766 282.327 704.327 281.299C704.45 281.073 704.574 280.847 704.699 280.621C704.9 280.26 705.101 279.9 705.302 279.54C707.182 276.177 709.174 272.881 711.244 269.626C711.982 268.465 713.747 266.799 714.085 265.495C714.097 265.446 714.1 265.401 714.108 265.354C718.598 259.048 723.768 253.23 729.967 248.621C729.218 249.431 727.625 252.18 727.204 252.724C725.915 254.391 724.516 255.942 723.112 257.512C720.597 260.325 718.141 263.227 715.959 266.295C711.969 271.907 708.526 277.813 705.272 283.838C705.242 283.874 705.208 283.907 705.178 283.943C703.543 285.959 702.513 289.006 701.336 291.312C705.995 289.155 711.147 287.749 715.929 285.833C720.697 283.922 725.336 281.795 729.815 279.297C735.767 275.977 741.941 272.229 747.565 267.987C754.01 263.989 759.426 258.486 764.207 252.712C769.863 245.88 775.046 238.988 778.252 230.692C779.827 226.616 781.066 222.365 781.8 218.065C781.832 217.877 781.873 217.674 781.918 217.463C782.669 215.978 783.341 214.459 783.905 212.906C784.8 210.442 786.915 207.731 782.949 206.865Z" fill="#CC5757"/>
<path fill-rule="evenodd" clip-rule="evenodd" d="M117.455 235.731C116.225 234.398 114.843 233.196 113.221 232.339C112.811 232.123 109.755 230.671 109.556 230.989C109.093 231.731 117.086 235.305 117.455 235.731ZM131.942 226.831C131.932 226.888 132.991 228.685 133.28 229.238C133.894 230.413 134.461 231.611 134.994 232.812C134.204 230.692 133.393 228.725 131.942 226.831ZM57.8537 241.465C56.8333 241.793 55.6065 240.498 56.9301 240.179C58.001 239.923 57.9484 239.863 58.4293 239C58.8198 238.3 59.0603 237.445 59.403 236.71C60.1297 235.151 60.9542 233.664 61.9661 232.271C64.1349 229.284 66.7774 226.711 69.7412 224.542C74.9134 220.757 80.7128 217.298 86.8647 215.56C96.6463 212.797 107.779 212.626 117.576 214.542C123.643 215.729 129.188 217.791 133.217 222.677C135.231 225.118 136.812 227.978 137.503 231.128C137.683 231.951 137.649 232.866 137.875 233.672C138.222 234.912 138.069 234.582 139.518 234.823C141.101 235.086 142.682 235.355 144.263 235.628C148.402 236.344 152.566 237.104 156.599 238.266C157.926 238.648 159.224 239.115 160.493 239.658C161.452 240.069 165.271 241.357 165.735 242.603C166.508 244.676 163.919 243.736 163.115 243.285C162.41 242.889 161.687 242.52 160.953 242.18C159.105 241.325 157.18 240.664 155.211 240.137C153.084 239.568 150.913 239.143 148.75 238.718C146.733 238.322 144.709 237.961 142.682 237.616C141.556 237.425 140.429 237.238 139.302 237.052C138.917 236.989 138.238 236.655 138.289 237.156C135.92 236.699 133.357 236.765 130.944 236.639C127.988 236.485 125.021 236.359 122.055 236.451C119.916 236.518 117.775 236.658 115.646 236.945C114.403 237.114 113.179 237.359 111.959 237.67C111.288 237.841 108.645 238.204 108.28 238.788C108.437 238.537 111.354 238.781 111.725 238.766C113.21 238.711 114.684 238.564 116.163 238.398C118.909 238.092 121.656 237.931 124.41 237.955C124.399 238.438 122.518 239.299 122.059 239.62C121.029 240.338 120.043 241.122 119.123 241.982C117.502 243.496 115.561 245.372 114.44 247.166C114.77 246.638 116.4 245.949 116.979 245.546C117.905 244.898 118.813 244.208 119.672 243.469C120.465 242.788 121.205 242.051 121.933 241.299C122.66 240.547 123.648 238.982 124.604 238.481C124.662 238.451 125.078 238.78 125.315 238.668C125.554 238.555 125.851 237.991 125.912 237.968C126.802 237.625 128.492 238.052 129.428 238.096C131.854 238.207 134.278 238.354 136.703 238.487C137.454 238.528 138.092 238.358 138.376 238.912C138.678 239.502 138.124 241.056 137.967 241.699C137.382 244.09 136.344 246.233 134.709 248.085C131.648 251.554 127.874 253.867 123.61 255.414C107.277 261.339 89.9017 263.712 73.5742 257.549C66.8147 254.997 56.6348 250.437 57.8537 241.465Z" fill="#E88080"/>
<g opacity="0.6">
<path opacity="0.6" fill-rule="evenodd" clip-rule="evenodd" d="M805.667 520.621C816.779 595.837 547.317 644.898 315.385 610.659C83.4535 576.421 -22.9458 442.717 87.7282 371.474C198.402 300.231 794.556 445.405 805.667 520.621Z" fill="#DDE3E9"/>
</g>
<path d="M331.611 27.6343H166.957C161.87 27.6343 157.746 31.7584 157.746 36.8457V366.154C157.746 371.242 161.87 375.366 166.957 375.366H331.611C336.699 375.366 340.823 371.242 340.823 366.154V36.8457C340.823 31.7584 336.699 27.6343 331.611 27.6343Z" fill="#F2F2F2"/>
<path d="M248.709 353.489C258.247 353.489 265.98 345.756 265.98 336.217C265.98 326.678 258.247 318.946 248.709 318.946C239.17 318.946 231.437 326.678 231.437 336.217C231.437 345.756 239.17 353.489 248.709 353.489Z" fill="white"/>
<path d="M233.74 50.6628C235.012 50.6628 236.043 49.6318 236.043 48.36C236.043 47.0882 235.012 46.0571 233.74 46.0571C232.468 46.0571 231.437 47.0882 231.437 48.36C231.437 49.6318 232.468 50.6628 233.74 50.6628Z" fill="white"/>
<path d="M263.677 46.0571H244.103C242.831 46.0571 241.8 47.0882 241.8 48.36C241.8 49.6318 242.831 50.6628 244.103 50.6628H263.677C264.949 50.6628 265.98 49.6318 265.98 48.36C265.98 47.0882 264.949 46.0571 263.677 46.0571Z" fill="white"/>
<path d="M320.097 59.8743H178.471C175.928 59.8743 173.866 61.9363 173.866 64.48V117.446C173.866 119.989 175.928 122.051 178.471 122.051H320.097C322.641 122.051 324.703 119.989 324.703 117.446V64.48C324.703 61.9363 322.641 59.8743 320.097 59.8743Z" fill="white"/>
<path d="M299.371 78.5275H222.226C220.318 78.5275 218.771 80.074 218.771 81.9818V84.3998C218.771 86.3075 220.318 87.854 222.226 87.854H299.371C301.279 87.854 302.826 86.3075 302.826 84.3998V81.9818C302.826 80.074 301.279 78.5275 299.371 78.5275Z" fill="#DDE3E9"/>
<path d="M271.737 94.0718H222.226C220.318 94.0718 218.771 95.6183 218.771 97.5261V99.9441C218.771 101.852 220.318 103.398 222.226 103.398H271.737C273.645 103.398 275.191 101.852 275.191 99.9441V97.5261C275.191 95.6183 273.645 94.0718 271.737 94.0718Z" fill="#DDE3E9"/>
<path d="M198.046 104.78C205.677 104.78 211.863 98.5939 211.863 90.9629C211.863 83.3319 205.677 77.1458 198.046 77.1458C190.415 77.1458 184.229 83.3319 184.229 90.9629C184.229 98.5939 190.415 104.78 198.046 104.78Z" fill="#C5CFD6"/>
<path d="M320.097 131.263H178.471C175.928 131.263 173.866 133.325 173.866 135.869V175.017C173.866 177.561 175.928 179.623 178.471 179.623H320.097C322.641 179.623 324.703 177.561 324.703 175.017V135.869C324.703 133.325 322.641 131.263 320.097 131.263Z" fill="white"/>
<path d="M299.371 145.771H222.226C220.318 145.771 218.771 147.317 218.771 149.225V149.571C218.771 151.478 220.318 153.025 222.226 153.025H299.371C301.279 153.025 302.826 151.478 302.826 149.571V149.225C302.826 147.317 301.279 145.771 299.371 145.771Z" fill="#DDE3E9"/>
<path d="M271.737 157.861H222.226C220.318 157.861 218.771 159.407 218.771 161.315V161.661C218.771 163.568 220.318 165.115 222.226 165.115H271.737C273.645 165.115 275.191 163.568 275.191 161.661V161.315C275.191 159.407 273.645 157.861 271.737 157.861Z" fill="#DDE3E9"/>
<path d="M198.046 169.26C205.677 169.26 211.863 163.074 211.863 155.443C211.863 147.812 205.677 141.626 198.046 141.626C190.415 141.626 184.229 147.812 184.229 155.443C184.229 163.074 190.415 169.26 198.046 169.26Z" fill="#C5CFD6"/>
<path d="M320.097 188.834H178.471C175.928 188.834 173.866 190.896 173.866 193.44V232.589C173.866 235.132 175.928 237.194 178.471 237.194H320.097C322.641 237.194 324.703 235.132 324.703 232.589V193.44C324.703 190.896 322.641 188.834 320.097 188.834Z" fill="white"/>
<path d="M299.371 203.342H222.226C220.318 203.342 218.771 204.889 218.771 206.797V207.142C218.771 209.05 220.318 210.596 222.226 210.596H299.371C301.279 210.596 302.826 209.05 302.826 207.142V206.797C302.826 204.889 301.279 203.342 299.371 203.342Z" fill="#DDE3E9"/>
<path d="M271.737 215.432H222.226C220.318 215.432 218.771 216.979 218.771 218.887V219.232C218.771 221.14 220.318 222.686 222.226 222.686H271.737C273.645 222.686 275.191 221.14 275.191 219.232V218.887C275.191 216.979 273.645 215.432 271.737 215.432Z" fill="#DDE3E9"/>
<path d="M198.046 226.831C205.677 226.831 211.863 220.645 211.863 213.014C211.863 205.383 205.677 199.197 198.046 199.197C190.415 199.197 184.229 205.383 184.229 213.014C184.229 220.645 190.415 226.831 198.046 226.831Z" fill="#AFB9C5"/>
<path d="M320.097 246.406H178.471C175.928 246.406 173.866 248.468 173.866 251.011V290.16C173.866 292.704 175.928 294.766 178.471 294.766H320.097C322.641 294.766 324.703 292.704 324.703 290.16V251.011C324.703 248.468 322.641 246.406 320.097 246.406Z" fill="white"/>
<path d="M299.371 260.914H222.226C220.318 260.914 218.771 262.46 218.771 264.368V264.713C218.771 266.621 220.318 268.168 222.226 268.168H299.371C301.279 268.168 302.826 266.621 302.826 264.713V264.368C302.826 262.46 301.279 260.914 299.371 260.914Z" fill="#DDE3E9"/>
<path d="M271.737 273.004H222.226C220.318 273.004 218.771 274.55 218.771 276.458V276.803C218.771 278.711 220.318 280.258 222.226 280.258H271.737C273.645 280.258 275.191 278.711 275.191 276.803V276.458C275.191 274.55 273.645 273.004 271.737 273.004Z" fill="#DDE3E9"/>
<path d="M198.046 284.403C205.677 284.403 211.863 278.217 211.863 270.586C211.863 262.955 205.677 256.769 198.046 256.769C190.415 256.769 184.229 262.955 184.229 270.586C184.229 278.217 190.415 284.403 198.046 284.403Z" fill="#C5CFD6"/>
<path fill-rule="evenodd" clip-rule="evenodd" d="M192.45 308.583C190.924 308.583 189.403 308.613 187.88 308.693C186.719 308.753 184.944 308.513 183.961 309.237C182.94 309.988 183.011 311.527 183.17 312.614C184.013 318.362 186.071 323.458 190.376 327.53C197.004 333.8 204.603 336.986 213.595 338.405C219.911 339.402 225.742 338.018 230.392 333.526C233.789 339.831 236.366 346.809 237.659 353.851C238.297 357.326 238.492 360.759 238.38 364.298C238.308 366.564 238.183 368.825 237.94 371.081C237.835 372.061 237.335 373.545 237.719 374.471C238.169 375.559 239.687 375.664 240.369 374.736C240.937 373.964 240.832 372.448 240.949 371.535C241.142 370.017 241.321 368.499 241.449 366.974C241.657 364.507 241.811 362.032 241.799 359.555C241.773 353.989 240.536 348.402 238.843 343.119C235.596 332.984 230.328 323.977 222.134 316.909C217.096 312.563 211.33 310.804 204.788 309.859C200.715 309.271 196.576 308.583 192.45 308.583Z" fill="#BF5F64"/>
<path fill-rule="evenodd" clip-rule="evenodd" d="M215.975 348.883C199.511 348.883 188.422 362.152 183.179 375.943C181.203 381.142 180.74 386.85 179.978 392.308C179.733 394.06 179.824 396.729 179.113 398.29C178.855 398.856 178.263 399.059 178.546 399.83C178.717 400.297 179.053 400.583 179.558 400.676C180.594 400.866 182.058 399.738 182.946 399.293C190.31 395.6 195.149 389.889 199.096 382.902C201.543 378.571 204.026 374.075 205.479 369.321C206.367 366.416 206.884 363.357 207.188 360.344C207.307 359.158 207.423 357.943 207.416 356.749C207.409 355.564 206.858 354.938 206.462 353.907C211.955 351.828 218.156 351.261 223.721 353.416C228.868 355.409 233.143 359.261 235.537 364.1C236.159 365.357 236.639 366.684 236.988 368.038C237.217 368.924 237.228 370.074 237.652 370.876C238.68 372.818 240.842 371.519 240.635 369.711C240.056 364.666 237.17 359.601 233.481 356.094C228.829 351.67 222.522 348.883 215.975 348.883Z" fill="#BF5F64"/>
<path d="M407.606 57.5714H242.951C237.864 57.5714 233.74 61.6955 233.74 66.7828V396.091C233.74 401.179 237.864 405.303 242.951 405.303H407.606C412.693 405.303 416.817 401.179 416.817 396.091V66.7828C416.817 61.6955 412.693 57.5714 407.606 57.5714Z" fill="#DDE3E9"/>
<path d="M324.703 383.426C334.242 383.426 341.974 375.693 341.974 366.154C341.974 356.615 334.242 348.883 324.703 348.883C315.164 348.883 307.431 356.615 307.431 366.154C307.431 375.693 315.164 383.426 324.703 383.426Z" fill="white"/>
<path d="M309.734 80.6C311.006 80.6 312.037 79.569 312.037 78.2971C312.037 77.0253 311.006 75.9943 309.734 75.9943C308.462 75.9943 307.431 77.0253 307.431 78.2971C307.431 79.569 308.462 80.6 309.734 80.6Z" fill="white"/>
<path d="M339.671 75.9943H320.097C318.825 75.9943 317.794 77.0253 317.794 78.2971C317.794 79.569 318.825 80.6 320.097 80.6H339.671C340.943 80.6 341.974 79.569 341.974 78.2971C341.974 77.0253 340.943 75.9943 339.671 75.9943Z" fill="white"/>
<path d="M396.091 89.8114H254.466C251.922 89.8114 249.86 91.8734 249.86 94.4171V147.383C249.86 149.926 251.922 151.989 254.466 151.989H396.091C398.635 151.989 400.697 149.926 400.697 147.383V94.4171C400.697 91.8734 398.635 89.8114 396.091 89.8114Z" fill="white"/>
<path d="M340.823 108.465H263.677C261.769 108.465 260.223 110.011 260.223 111.919V114.337C260.223 116.245 261.769 117.791 263.677 117.791H340.823C342.731 117.791 344.277 116.245 344.277 114.337V111.919C344.277 110.011 342.731 108.465 340.823 108.465Z" fill="#DDE3E9"/>
<path d="M313.189 124.009H263.677C261.769 124.009 260.223 125.555 260.223 127.463V129.881C260.223 131.789 261.769 133.335 263.677 133.335H313.189C315.096 133.335 316.643 131.789 316.643 129.881V127.463C316.643 125.555 315.096 124.009 313.189 124.009Z" fill="#DDE3E9"/>
<path d="M384.577 128.96C389.029 128.96 392.637 125.351 392.637 120.9C392.637 116.449 389.029 112.84 384.577 112.84C380.126 112.84 376.517 116.449 376.517 120.9C376.517 125.351 380.126 128.96 384.577 128.96Z" fill="#DDE3E9"/>
<path d="M384.577 124.354C386.485 124.354 388.031 122.808 388.031 120.9C388.031 118.992 386.485 117.446 384.577 117.446C382.669 117.446 381.123 118.992 381.123 120.9C381.123 122.808 382.669 124.354 384.577 124.354Z" fill="#F2F2F2"/>
<path d="M396.091 161.2H254.466C251.922 161.2 249.86 163.262 249.86 165.806V204.954C249.86 207.498 251.922 209.56 254.466 209.56H396.091C398.635 209.56 400.697 207.498 400.697 204.954V165.806C400.697 163.262 398.635 161.2 396.091 161.2Z" fill="white"/>
<path d="M375.366 175.708H298.22C296.312 175.708 294.766 177.255 294.766 179.162V179.508C294.766 181.415 296.312 182.962 298.22 182.962H375.366C377.273 182.962 378.82 181.415 378.82 179.508V179.162C378.82 177.255 377.273 175.708 375.366 175.708Z" fill="#DDE3E9"/>
<path d="M347.731 187.798H298.22C296.312 187.798 294.766 189.345 294.766 191.252V191.598C294.766 193.505 296.312 195.052 298.22 195.052H347.731C349.639 195.052 351.186 193.505 351.186 191.598V191.252C351.186 189.345 349.639 187.798 347.731 187.798Z" fill="#DDE3E9"/>
<path d="M274.04 199.197C281.671 199.197 287.857 193.011 287.857 185.38C287.857 177.749 281.671 171.563 274.04 171.563C266.409 171.563 260.223 177.749 260.223 185.38C260.223 193.011 266.409 199.197 274.04 199.197Z" fill="#C5CFD6"/>
<path d="M396.091 218.771H254.466C251.922 218.771 249.86 220.833 249.86 223.377V262.526C249.86 265.069 251.922 267.131 254.466 267.131H396.091C398.635 267.131 400.697 265.069 400.697 262.526V223.377C400.697 220.833 398.635 218.771 396.091 218.771Z" fill="white"/>
<path d="M340.823 233.279H263.677C261.769 233.279 260.223 234.826 260.223 236.734V237.079C260.223 238.987 261.769 240.533 263.677 240.533H340.823C342.731 240.533 344.277 238.987 344.277 237.079V236.734C344.277 234.826 342.731 233.279 340.823 233.279Z" fill="#DDE3E9"/>
<path d="M313.189 245.369H263.677C261.769 245.369 260.223 246.916 260.223 248.824V249.169C260.223 251.077 261.769 252.623 263.677 252.623H313.189C315.096 252.623 316.643 251.077 316.643 249.169V248.824C316.643 246.916 315.096 245.369 313.189 245.369Z" fill="#AFB9C5"/>
<path d="M384.577 251.011C389.029 251.011 392.637 247.403 392.637 242.951C392.637 238.5 389.029 234.891 384.577 234.891C380.126 234.891 376.517 238.5 376.517 242.951C376.517 247.403 380.126 251.011 384.577 251.011Z" fill="#DDE3E9"/>
<path d="M384.577 246.406C386.485 246.406 388.031 244.859 388.031 242.951C388.031 241.044 386.485 239.497 384.577 239.497C382.669 239.497 381.123 241.044 381.123 242.951C381.123 244.859 382.669 246.406 384.577 246.406Z" fill="#F2F2F2"/>
<path d="M396.091 276.343H254.466C251.922 276.343 249.86 278.405 249.86 280.949V320.097C249.86 322.641 251.922 324.703 254.466 324.703H396.091C398.635 324.703 400.697 322.641 400.697 320.097V280.949C400.697 278.405 398.635 276.343 396.091 276.343Z" fill="white"/>
<path d="M375.366 290.851H298.22C296.312 290.851 294.766 292.397 294.766 294.305V294.651C294.766 296.558 296.312 298.105 298.22 298.105H375.366C377.273 298.105 378.82 296.558 378.82 294.651V294.305C378.82 292.397 377.273 290.851 375.366 290.851Z" fill="#DDE3E9"/>
<path d="M347.731 302.941H298.22C296.312 302.941 294.766 304.487 294.766 306.395V306.741C294.766 308.648 296.312 310.195 298.22 310.195H347.731C349.639 310.195 351.186 308.648 351.186 306.741V306.395C351.186 304.487 349.639 302.941 347.731 302.941Z" fill="#DDE3E9"/>
<path d="M274.04 314.34C281.671 314.34 287.857 308.154 287.857 300.523C287.857 292.892 281.671 286.706 274.04 286.706C266.409 286.706 260.223 292.892 260.223 300.523C260.223 308.154 266.409 314.34 274.04 314.34Z" fill="#C5CFD6"/>
<path d="M686.251 86.3572H318.946C313.858 86.3572 309.734 90.4813 309.734 95.5686V475.54C309.734 480.627 313.858 484.751 318.946 484.751H686.251C691.339 484.751 695.463 480.627 695.463 475.54V95.5686C695.463 90.4813 691.339 86.3572 686.251 86.3572Z" fill="#F2F2F2"/>
<path d="M667.829 135.869H605.651C600.564 135.869 596.44 139.993 596.44 145.08V219.923C596.44 225.01 600.564 229.134 605.651 229.134H667.829C672.916 229.134 677.04 225.01 677.04 219.923V145.08C677.04 139.993 672.916 135.869 667.829 135.869Z" fill="white"/>
<path d="M636.74 189.986C646.915 189.986 655.163 181.738 655.163 171.563C655.163 161.388 646.915 153.14 636.74 153.14C626.565 153.14 618.317 161.388 618.317 171.563C618.317 181.738 626.565 189.986 636.74 189.986Z" fill="#DDE3E9"/>
<path d="M662.071 194.591H611.409C609.501 194.591 607.954 196.138 607.954 198.046C607.954 199.953 609.501 201.5 611.409 201.5H662.071C663.979 201.5 665.526 199.953 665.526 198.046C665.526 196.138 663.979 194.591 662.071 194.591Z" fill="#DDE3E9"/>
<path d="M652.86 206.106H620.62C618.712 206.106 617.166 207.652 617.166 209.56C617.166 211.468 618.712 213.014 620.62 213.014H652.86C654.768 213.014 656.314 211.468 656.314 209.56C656.314 207.652 654.768 206.106 652.86 206.106Z" fill="#DDE3E9"/>
<path fill-rule="evenodd" clip-rule="evenodd" d="M318.946 86.3572H686.251C691.339 86.3572 695.463 90.4813 695.463 95.5686V117.446H309.734V95.5686C309.734 90.4813 313.858 86.3572 318.946 86.3572Z" fill="#C5CFD6"/>
<path d="M324.703 107.083C327.246 107.083 329.309 105.021 329.309 102.477C329.309 99.9335 327.246 97.8715 324.703 97.8715C322.159 97.8715 320.097 99.9335 320.097 102.477C320.097 105.021 322.159 107.083 324.703 107.083Z" fill="#F2F2F2"/>
<path d="M338.52 107.083C341.064 107.083 343.126 105.021 343.126 102.477C343.126 99.9335 341.064 97.8715 338.52 97.8715C335.976 97.8715 333.914 99.9335 333.914 102.477C333.914 105.021 335.976 107.083 338.52 107.083Z" fill="#F2F2F2"/>
<path d="M352.337 107.083C354.881 107.083 356.943 105.021 356.943 102.477C356.943 99.9335 354.881 97.8715 352.337 97.8715C349.793 97.8715 347.731 99.9335 347.731 102.477C347.731 105.021 349.793 107.083 352.337 107.083Z" fill="#F2F2F2"/>
<path d="M667.829 238.346H605.651C600.564 238.346 596.44 242.47 596.44 247.557V452.511C596.44 457.599 600.564 461.723 605.651 461.723H667.829C672.916 461.723 677.04 457.599 677.04 452.511V247.557C677.04 242.47 672.916 238.346 667.829 238.346Z" fill="white"/>
<path d="M651.709 259.071H621.771C619.228 259.071 617.166 261.133 617.166 263.677V284.403C617.166 286.947 619.228 289.009 621.771 289.009H651.709C654.252 289.009 656.314 286.947 656.314 284.403V263.677C656.314 261.133 654.252 259.071 651.709 259.071Z" fill="#DDE3E9"/>
<path d="M651.709 298.22H621.771C619.228 298.22 617.166 300.282 617.166 302.826V322.4C617.166 324.944 619.228 327.006 621.771 327.006H651.709C654.252 327.006 656.314 324.944 656.314 322.4V302.826C656.314 300.282 654.252 298.22 651.709 298.22Z" fill="#AFB9C5"/>
<path d="M651.709 336.217H621.771C619.228 336.217 617.166 338.279 617.166 340.823V360.397C617.166 362.941 619.228 365.003 621.771 365.003H651.709C654.252 365.003 656.314 362.941 656.314 360.397V340.823C656.314 338.279 654.252 336.217 651.709 336.217Z" fill="#DDE3E9"/>
<path d="M651.709 412.211H621.771C619.228 412.211 617.166 414.273 617.166 416.817V436.391C617.166 438.935 619.228 440.997 621.771 440.997H651.709C654.252 440.997 656.314 438.935 656.314 436.391V416.817C656.314 414.273 654.252 412.211 651.709 412.211Z" fill="#DDE3E9"/>
<path d="M651.709 374.214H621.771C619.228 374.214 617.166 376.276 617.166 378.82V398.394C617.166 400.938 619.228 403 621.771 403H651.709C654.252 403 656.314 400.938 656.314 398.394V378.82C656.314 376.276 654.252 374.214 651.709 374.214Z" fill="#C5CFD6"/>
<path d="M582.623 137.02H332.763C330.219 137.02 328.157 139.082 328.157 141.626V186.531C328.157 189.075 330.219 191.137 332.763 191.137H582.623C585.166 191.137 587.229 189.075 587.229 186.531V141.626C587.229 139.082 585.166 137.02 582.623 137.02Z" fill="white"/>
<path d="M527.354 153.255H341.974C340.066 153.255 338.52 154.802 338.52 156.709V157.918C338.52 159.826 340.066 161.373 341.974 161.373H527.354C529.262 161.373 530.809 159.826 530.809 157.918V156.709C530.809 154.802 529.262 153.255 527.354 153.255Z" fill="#DDE3E9"/>
<path d="M464.136 166.784H341.974C340.066 166.784 338.52 168.331 338.52 170.239V171.448C338.52 173.355 340.066 174.902 341.974 174.902H464.136C466.044 174.902 467.59 173.355 467.59 171.448V170.239C467.59 168.331 466.044 166.784 464.136 166.784Z" fill="#DDE3E9"/>
<path d="M559.542 172.139C563.993 172.139 567.602 168.53 567.602 164.079C567.602 159.627 563.993 156.019 559.542 156.019C555.09 156.019 551.482 159.627 551.482 164.079C551.482 168.53 555.09 172.139 559.542 172.139Z" fill="#DDE3E9"/>
<path d="M559.542 167.533C561.449 167.533 562.996 165.986 562.996 164.079C562.996 162.171 561.449 160.624 559.542 160.624C557.634 160.624 556.087 162.171 556.087 164.079C556.087 165.986 557.634 167.533 559.542 167.533Z" fill="#F2F2F2"/>
<path d="M582.623 200.349H332.763C330.219 200.349 328.157 202.411 328.157 204.954V240.649C328.157 243.192 330.219 245.254 332.763 245.254H582.623C585.166 245.254 587.229 243.192 587.229 240.649V204.954C587.229 202.411 585.166 200.349 582.623 200.349Z" fill="white"/>
<path d="M527.441 213.82H341.888C340.028 213.82 338.52 215.328 338.52 217.188C338.52 219.048 340.028 220.556 341.888 220.556H527.441C529.301 220.556 530.809 219.048 530.809 217.188C530.809 215.328 529.301 213.82 527.441 213.82Z" fill="#DDE3E9"/>
<path d="M464.222 225.047H341.888C340.028 225.047 338.52 226.555 338.52 228.415C338.52 230.275 340.028 231.783 341.888 231.783H464.222C466.082 231.783 467.59 230.275 467.59 228.415C467.59 226.555 466.082 225.047 464.222 225.047Z" fill="#DDE3E9"/>
<path d="M559.542 230.861C563.993 230.861 567.602 227.253 567.602 222.801C567.602 218.35 563.993 214.741 559.542 214.741C555.09 214.741 551.482 218.35 551.482 222.801C551.482 227.253 555.09 230.861 559.542 230.861Z" fill="#DDE3E9"/>
<path d="M559.542 226.256C561.449 226.256 562.996 224.709 562.996 222.801C562.996 220.894 561.449 219.347 559.542 219.347C557.634 219.347 556.087 220.894 556.087 222.801C556.087 224.709 557.634 226.256 559.542 226.256Z" fill="#F2F2F2"/>
<path d="M582.623 254.466H332.763C330.219 254.466 328.157 256.528 328.157 259.071V294.766C328.157 297.309 330.219 299.371 332.763 299.371H582.623C585.166 299.371 587.229 297.309 587.229 294.766V259.071C587.229 256.528 585.166 254.466 582.623 254.466Z" fill="white"/>
<path d="M527.441 267.937H341.888C340.028 267.937 338.52 269.445 338.52 271.305C338.52 273.165 340.028 274.673 341.888 274.673H527.441C529.301 274.673 530.809 273.165 530.809 271.305C530.809 269.445 529.301 267.937 527.441 267.937Z" fill="#DDE3E9"/>
<path d="M464.222 279.164H341.888C340.028 279.164 338.52 280.672 338.52 282.532C338.52 284.392 340.028 285.9 341.888 285.9H464.222C466.082 285.9 467.59 284.392 467.59 282.532C467.59 280.672 466.082 279.164 464.222 279.164Z" fill="#DDE3E9"/>
<path d="M559.542 284.979C563.993 284.979 567.602 281.37 567.602 276.919C567.602 272.467 563.993 268.859 559.542 268.859C555.09 268.859 551.482 272.467 551.482 276.919C551.482 281.37 555.09 284.979 559.542 284.979Z" fill="#DDE3E9"/>
<path d="M559.542 280.373C561.449 280.373 562.996 278.826 562.996 276.919C562.996 275.011 561.449 273.464 559.542 273.464C557.634 273.464 556.087 275.011 556.087 276.919C556.087 278.826 557.634 280.373 559.542 280.373Z" fill="#AFB9C5"/>
<path d="M582.623 416.817H332.763C330.219 416.817 328.157 418.879 328.157 421.423V457.117C328.157 459.661 330.219 461.723 332.763 461.723H582.623C585.166 461.723 587.229 459.661 587.229 457.117V421.423C587.229 418.879 585.166 416.817 582.623 416.817Z" fill="white"/>
<path d="M527.441 430.289H341.888C340.028 430.289 338.52 431.797 338.52 433.657C338.52 435.517 340.028 437.025 341.888 437.025H527.441C529.301 437.025 530.809 435.517 530.809 433.657C530.809 431.797 529.301 430.289 527.441 430.289Z" fill="#DDE3E9"/>
<path d="M464.222 441.515H341.888C340.028 441.515 338.52 443.023 338.52 444.883C338.52 446.743 340.028 448.251 341.888 448.251H464.222C466.082 448.251 467.59 446.743 467.59 444.883C467.59 443.023 466.082 441.515 464.222 441.515Z" fill="#DDE3E9"/>
<path d="M559.542 447.33C563.993 447.33 567.602 443.721 567.602 439.27C567.602 434.819 563.993 431.21 559.542 431.21C555.09 431.21 551.482 434.819 551.482 439.27C551.482 443.721 555.09 447.33 559.542 447.33Z" fill="#DDE3E9"/>
<path d="M559.542 442.724C561.449 442.724 562.996 441.178 562.996 439.27C562.996 437.362 561.449 435.816 559.542 435.816C557.634 435.816 556.087 437.362 556.087 439.27C556.087 441.178 557.634 442.724 559.542 442.724Z" fill="#F2F2F2"/>
<path d="M582.623 362.7H332.763C330.219 362.7 328.157 364.762 328.157 367.306V403C328.157 405.544 330.219 407.606 332.763 407.606H582.623C585.166 407.606 587.229 405.544 587.229 403V367.306C587.229 364.762 585.166 362.7 582.623 362.7Z" fill="white"/>
<path d="M527.441 376.172H341.888C340.028 376.172 338.52 377.68 338.52 379.54C338.52 381.4 340.028 382.908 341.888 382.908H527.441C529.301 382.908 530.809 381.4 530.809 379.54C530.809 377.68 529.301 376.172 527.441 376.172Z" fill="#DDE3E9"/>
<path d="M464.222 387.398H341.888C340.028 387.398 338.52 388.906 338.52 390.766C338.52 392.626 340.028 394.134 341.888 394.134H464.222C466.082 394.134 467.59 392.626 467.59 390.766C467.59 388.906 466.082 387.398 464.222 387.398Z" fill="#DDE3E9"/>
<path d="M559.542 393.213C563.993 393.213 567.602 389.604 567.602 385.153C567.602 380.701 563.993 377.093 559.542 377.093C555.09 377.093 551.482 380.701 551.482 385.153C551.482 389.604 555.09 393.213 559.542 393.213Z" fill="#DDE3E9"/>
<path d="M559.542 388.607C561.449 388.607 562.996 387.061 562.996 385.153C562.996 383.245 561.449 381.699 559.542 381.699C557.634 381.699 556.087 383.245 556.087 385.153C556.087 387.061 557.634 388.607 559.542 388.607Z" fill="#F2F2F2"/>
<path d="M582.623 308.583H332.763C330.219 308.583 328.157 310.645 328.157 313.189V348.883C328.157 351.427 330.219 353.489 332.763 353.489H582.623C585.166 353.489 587.229 351.427 587.229 348.883V313.189C587.229 310.645 585.166 308.583 582.623 308.583Z" fill="white"/>
<path d="M527.441 322.055H341.888C340.028 322.055 338.52 323.562 338.52 325.422C338.52 327.283 340.028 328.79 341.888 328.79H527.441C529.301 328.79 530.809 327.283 530.809 325.422C530.809 323.562 529.301 322.055 527.441 322.055Z" fill="#DDE3E9"/>
<path d="M464.222 333.281H341.888C340.028 333.281 338.52 334.789 338.52 336.649C338.52 338.509 340.028 340.017 341.888 340.017H464.222C466.082 340.017 467.59 338.509 467.59 336.649C467.59 334.789 466.082 333.281 464.222 333.281Z" fill="#DDE3E9"/>
<path d="M559.542 339.096C563.993 339.096 567.602 335.487 567.602 331.036C567.602 326.584 563.993 322.976 559.542 322.976C555.09 322.976 551.482 326.584 551.482 331.036C551.482 335.487 555.09 339.096 559.542 339.096Z" fill="#DDE3E9"/>
<path d="M559.542 334.49C561.449 334.49 562.996 332.943 562.996 331.036C562.996 329.128 561.449 327.581 559.542 327.581C557.634 327.581 556.087 329.128 556.087 331.036C556.087 332.943 557.634 334.49 559.542 334.49Z" fill="#F2F2F2"/>
<path fill-rule="evenodd" clip-rule="evenodd" d="M791.015 282.532C786.473 279.453 780.434 278.646 774.999 278.646C753.771 278.646 733.818 286.522 716.581 298.257C707.136 304.687 698.687 312.875 691.228 321.401C686.922 326.322 683.083 331.647 680.365 337.568C678.53 341.564 677.272 345.729 676.418 350.024C675.378 355.258 674.552 360.599 674.178 365.921C674.031 368.016 672.814 379.136 676.298 379.324C676.278 379.598 676.273 379.86 676.295 380.094C668.729 391.923 664.055 405.787 659.72 418.931C655.949 430.368 652.589 441.903 650.407 453.735C647.535 469.314 645.649 485.126 644.752 500.929C644.559 504.325 644.427 507.722 644.313 511.123C644.216 514.024 644.119 516.924 644.023 519.825C643.917 523.075 643.345 526.817 643.862 530.049C644.312 532.863 646.747 532.437 646.855 529.637C646.985 526.255 646.964 522.866 647.112 519.482C647.309 514.99 647.511 510.498 647.731 506.008C649.261 474.813 655.002 444.077 665.596 414.611C669.883 402.687 674.796 391.399 681.11 380.368C686.662 370.67 693.339 361.281 700.165 352.536C706.799 344.038 713.697 335.737 721.825 328.537C728.422 322.695 735.678 317.605 743.136 312.869C752.61 306.854 762.065 300.985 772.327 296.367C777.661 293.967 783.096 291.819 788.471 289.516C789.439 289.102 790.476 288.7 791.406 288.22C794.509 286.619 793.487 284.209 791.015 282.532Z" fill="#E88080"/>
<path fill-rule="evenodd" clip-rule="evenodd" d="M705.616 391.486C714.225 391.486 721.887 392.604 729.819 396.026C736.667 398.979 742.907 402.888 748.966 407.144C757.488 413.13 764.201 420.097 768.9 429.327C771.707 434.842 773.766 442.645 771.881 448.66C769.66 455.744 763.563 461.652 755.532 460.404C750.566 459.633 746.014 456.346 742.239 453.252C737.724 449.55 734.11 445.1 731.125 440.157C726.257 432.094 723.396 422.978 719.261 414.553C717.298 410.554 715.402 406.526 713.051 402.726C711.888 400.844 710.649 398.98 708.884 397.581C707.939 396.833 703.957 395.539 705.48 393.859C683.154 394.152 663.374 411.299 659.088 432.523C658.689 434.502 658.377 436.496 658.048 438.486C657.84 439.743 657.924 444.378 656.8 445.181C654.322 446.952 655.364 441.572 655.47 440.797C655.745 438.795 656.038 436.794 656.346 434.797C658.019 423.935 662.855 413.836 670.92 406.09C680.142 397.231 692.586 391.486 705.616 391.486Z" fill="#CC5757"/>
<path fill-rule="evenodd" clip-rule="evenodd" d="M85.1342 364.699C106.627 400.757 131.66 435.67 146.693 475.094C146.087 470.447 145.445 465.805 144.726 461.17C140.911 436.597 136.171 412.204 131.189 387.841C128.652 375.437 125.969 363.077 123.217 350.719C121.737 344.081 120.275 337.439 118.764 330.807C118.398 329.2 118.084 326.395 117.626 323.551C132.236 371.493 146.324 419.471 156.63 468.565C157.982 475.008 159.133 481.44 160.076 487.86C160.399 486.396 160.716 484.931 161.063 483.47C165.233 465.96 171.488 448.589 178.935 432.217C182.495 424.387 186.585 416.729 191.4 409.593C194.402 405.145 201.483 399.858 204.222 395.302C189.243 422.777 183.834 457.154 175.184 487.024C173.073 494.313 170.949 501.59 168.867 508.88C181.911 482.722 202.149 461.229 230.286 451.916C196.227 474.42 175.798 513.83 162.031 554.136C161.986 554.614 161.932 555.092 161.886 555.571C165.936 547.883 171.039 540.929 177.955 536.059C192.757 525.632 209.177 528.67 223.535 537.613C212.266 530.45 191.9 536.973 182.419 544.253C175.631 549.465 169.83 556.457 164.792 563.278C163.585 564.913 161.938 566.821 160.199 568.857C157.76 584.69 153.785 600.415 148.157 616.014C149.086 611.537 148.414 604.375 148.672 601.038C148.7 600.677 148.723 600.315 148.75 599.955C147.895 603.37 147.069 606.747 146.273 610.069C147.855 603.73 148.714 597.112 149.385 590.425C149.558 587.552 149.727 584.678 149.905 581.805C149.849 576.351 149.624 570.877 149.244 565.393C147.897 560.064 146.389 555.037 145.145 550.856C140.657 535.772 134.077 521.32 125.979 507.839C118.59 495.536 109.745 484.392 99.535 474.313C94.0307 468.882 88.2701 463.709 82.5907 458.464C80.537 456.568 76.8662 451.906 73.6914 449.475C96.8127 462.222 120.611 476.013 137.478 496.551C135.5 488.957 133.353 481.471 131.081 474.135C119.554 436.915 105 398.34 85.1342 364.699Z" fill="#E88080"/>
<path fill-rule="evenodd" clip-rule="evenodd" d="M108.234 568.806C108.234 610.14 111.508 643.649 155.443 643.649C199.378 643.649 202.651 610.14 202.651 568.806" fill="#F2F2F2"/>
<path d="M604.5 40.3C604.5 38.3922 602.953 36.8457 601.046 36.8457C599.138 36.8457 597.591 38.3922 597.591 40.3V62.1771C597.591 64.0849 599.138 65.6314 601.046 65.6314C602.953 65.6314 604.5 64.0849 604.5 62.1771V40.3Z" fill="#DDE3E9"/>
<path d="M620.62 21.8771C620.62 19.9694 619.073 18.4229 617.166 18.4229C615.258 18.4229 613.711 19.9694 613.711 21.8771V62.1771C613.711 64.0849 615.258 65.6314 617.166 65.6314C619.073 65.6314 620.62 64.0849 620.62 62.1771V21.8771Z" fill="#DDE3E9"/>
<path d="M636.74 12.6657C636.74 10.758 635.193 9.21143 633.286 9.21143C631.378 9.21143 629.831 10.758 629.831 12.6657V62.1771C629.831 64.0849 631.378 65.6314 633.286 65.6314C635.193 65.6314 636.74 64.0849 636.74 62.1771V12.6657Z" fill="#DDE3E9"/>
<path d="M652.86 21.8771C652.86 19.9694 651.313 18.4229 649.406 18.4229C647.498 18.4229 645.951 19.9694 645.951 21.8771V62.1771C645.951 64.0849 647.498 65.6314 649.406 65.6314C651.313 65.6314 652.86 64.0849 652.86 62.1771V21.8771Z" fill="#DDE3E9"/>
<path d="M668.98 3.45429C668.98 1.54654 667.433 0 665.526 0C663.618 0 662.071 1.54654 662.071 3.45429V62.1771C662.071 64.0849 663.618 65.6314 665.526 65.6314C667.433 65.6314 668.98 64.0849 668.98 62.1771V3.45429Z" fill="#C5CFD6"/>
<path fill-rule="evenodd" clip-rule="evenodd" d="M31.0886 352.632C31.0886 339.807 41.4537 329.309 54.1171 329.309V352.632L38.3794 369.609C33.9026 365.458 31.0886 359.369 31.0886 352.632Z" fill="#F2F2F2"/>
<path fill-rule="evenodd" clip-rule="evenodd" d="M53.5078 352.337H76.7635C76.7635 358.349 74.3111 363.982 70.4344 368.075C66.1705 372.552 60.0985 375.366 53.5078 375.366C47.4369 375.366 41.88 372.937 37.6149 369.099L53.5078 352.337Z" fill="#AFB9C5"/>
<path fill-rule="evenodd" clip-rule="evenodd" d="M77.1457 352.337C77.1457 339.674 66.7806 329.309 54.1171 329.309V352.337H77.1457ZM42.6029 329.309L51.8143 350.034L31.0886 340.823C33.1381 335.45 37.7404 331.358 42.6029 329.309Z" fill="#C5CFD6"/>
<path fill-rule="evenodd" clip-rule="evenodd" d="M780.4 362.906C778.187 365.255 775.053 366.73 771.567 366.73C764.868 366.73 759.438 361.317 759.438 354.64C759.438 347.963 764.868 342.55 771.567 342.55V320.097C752.511 320.097 736.914 335.645 736.914 354.64C736.914 373.635 752.511 389.183 771.567 389.183C781.576 389.183 790.622 384.962 796.789 378.247L780.4 362.906Z" fill="#F2F2F2"/>
<path fill-rule="evenodd" clip-rule="evenodd" d="M771.457 320.097V342.55C778.134 342.55 783.547 347.963 783.547 354.64H806C806 335.645 790.452 320.097 771.457 320.097Z" fill="#AFB9C5"/>
<path fill-rule="evenodd" clip-rule="evenodd" d="M783.083 354.64C783.083 358.563 781.236 362.05 778.366 364.301L792.484 382.274C800.703 375.84 806 365.866 806 354.64H783.083Z" fill="#C5CFD6"/>
<path fill-rule="evenodd" clip-rule="evenodd" d="M560.805 45.486C559.103 47.2868 556.692 48.4176 554.01 48.4176C548.858 48.4176 544.681 44.2678 544.681 39.1486C544.681 34.0295 548.858 29.8796 554.01 29.8796V12.6658C539.352 12.6658 527.354 24.5857 527.354 39.1486C527.354 53.7116 539.352 65.6315 554.01 65.6315C561.71 65.6315 568.668 62.3953 573.411 57.247L560.805 45.486Z" fill="#F2F2F2"/>
<path fill-rule="evenodd" clip-rule="evenodd" d="M553.837 12.6658V29.8796C558.956 29.8796 563.106 34.0295 563.106 39.1486H580.32C580.32 24.5857 568.4 12.6658 553.837 12.6658Z" fill="#AFB9C5"/>
<path fill-rule="evenodd" clip-rule="evenodd" d="M563.132 39.1487C563.132 42.0909 561.747 44.7061 559.594 46.3947L570.183 59.8744C576.347 55.0485 580.32 47.5679 580.32 39.1487H563.132Z" fill="#C5CFD6"/>
<path fill-rule="evenodd" clip-rule="evenodd" d="M141.634 65.6157C141.629 65.6273 141.625 65.639 141.618 65.6529C141.625 65.6413 141.634 65.5948 141.634 65.6157Z" fill="#C5CFD6"/>
<path fill-rule="evenodd" clip-rule="evenodd" d="M141.623 65.6336C141.623 65.636 141.621 65.6407 141.621 65.6454C141.621 65.6336 141.642 65.5982 141.623 65.6336Z" fill="#C5CFD6"/>
<path fill-rule="evenodd" clip-rule="evenodd" d="M141.703 65.4384C141.687 65.4844 141.666 65.5281 141.648 65.5741C141.657 65.5511 141.666 65.5327 141.675 65.5097C141.436 66.1079 141.588 65.719 141.703 65.4384Z" fill="#C5CFD6"/>
<path fill-rule="evenodd" clip-rule="evenodd" d="M141.652 65.577C141.642 65.5978 141.633 65.621 141.624 65.6418C141.557 65.7712 141.652 65.577 141.652 65.577Z" fill="#C5CFD6"/>
<path fill-rule="evenodd" clip-rule="evenodd" d="M141.625 65.6343C141.625 65.6317 141.625 65.6317 141.627 65.6292C141.625 65.6317 141.625 65.6317 141.625 65.6343Z" fill="#C5CFD6"/>
<path fill-rule="evenodd" clip-rule="evenodd" d="M141.614 65.6508C141.6 65.6787 141.679 65.5436 141.614 65.6508V65.6508Z" fill="#C5CFD6"/>
<path fill-rule="evenodd" clip-rule="evenodd" d="M141.623 65.6344L141.629 65.6292C141.626 65.6318 141.626 65.6344 141.623 65.6344Z" fill="#C5CFD6"/>
<path d="M191.137 5.7572H90.9629C88.4192 5.7572 86.3571 7.81925 86.3571 10.3629V73.6915C86.3571 76.2352 88.4192 78.2972 90.9629 78.2972H191.137C193.681 78.2972 195.743 76.2352 195.743 73.6915V10.3629C195.743 7.81925 193.681 5.7572 191.137 5.7572Z" fill="#DDE3E9"/>
<path fill-rule="evenodd" clip-rule="evenodd" d="M127.809 26.4829L95.5686 78.2972H160.049L127.809 26.4829Z" fill="#AFB9C5"/>
<path fill-rule="evenodd" clip-rule="evenodd" d="M159.473 40.3L131.263 78.2972H187.683L159.473 40.3Z" fill="#C5CFD6"/>
<path d="M171.563 40.3001C177.286 40.3001 181.926 35.6604 181.926 29.9372C181.926 24.2139 177.286 19.5743 171.563 19.5743C165.84 19.5743 161.2 24.2139 161.2 29.9372C161.2 35.6604 165.84 40.3001 171.563 40.3001Z" fill="white"/>
<path fill-rule="evenodd" clip-rule="evenodd" d="M690.849 557.276C690.854 557.287 690.858 557.299 690.865 557.313C690.858 557.301 690.849 557.255 690.849 557.276Z" fill="#C5CFD6"/>
<path fill-rule="evenodd" clip-rule="evenodd" d="M690.86 557.294C690.86 557.296 690.862 557.301 690.862 557.305C690.862 557.294 690.841 557.258 690.86 557.294Z" fill="#C5CFD6"/>
<path fill-rule="evenodd" clip-rule="evenodd" d="M690.78 557.098C690.796 557.144 690.817 557.188 690.835 557.234C690.826 557.211 690.817 557.193 690.808 557.17C691.047 557.768 690.895 557.379 690.78 557.098Z" fill="#C5CFD6"/>
<path fill-rule="evenodd" clip-rule="evenodd" d="M690.831 557.237C690.84 557.258 690.85 557.281 690.859 557.302C690.926 557.431 690.831 557.237 690.831 557.237Z" fill="#C5CFD6"/>
<path fill-rule="evenodd" clip-rule="evenodd" d="M690.858 557.294C690.858 557.292 690.858 557.292 690.856 557.289C690.858 557.292 690.858 557.292 690.858 557.294Z" fill="#C5CFD6"/>
<path fill-rule="evenodd" clip-rule="evenodd" d="M690.869 557.311C690.883 557.339 690.804 557.204 690.869 557.311V557.311Z" fill="#C5CFD6"/>
<path fill-rule="evenodd" clip-rule="evenodd" d="M690.859 557.294L690.854 557.289C690.857 557.292 690.857 557.294 690.859 557.294Z" fill="#C5CFD6"/>
<path d="M613.711 468.631H768.003C770.546 468.631 772.609 470.693 772.609 473.237V572.26C772.609 574.804 770.546 576.866 768.003 576.866H613.711C611.168 576.866 609.106 574.804 609.106 572.26V473.237C609.106 470.693 611.168 468.631 613.711 468.631Z" fill="#DDE3E9"/>
<path fill-rule="evenodd" clip-rule="evenodd" d="M711.899 499.72L759.171 576.866H664.627L711.899 499.72Z" fill="#AFB9C5"/>
<path fill-rule="evenodd" clip-rule="evenodd" d="M663.159 520.384L704.95 576.866H621.368L663.159 520.384Z" fill="#C5CFD6"/>
<path d="M645.376 520.446C636.791 520.446 629.831 513.486 629.831 504.901C629.831 496.317 636.791 489.357 645.376 489.357C653.961 489.357 660.92 496.317 660.92 504.901C660.92 513.486 653.961 520.446 645.376 520.446Z" fill="white"/>
<path fill-rule="evenodd" clip-rule="evenodd" d="M847.646 540.144C846.529 542.506 845.533 544.916 844.653 547.361C844.622 542.325 844.85 537.251 845.471 532.108C846.534 523.298 848.158 514.534 849.683 505.784C850.779 499.496 850.71 488.202 854.871 483.191C856.012 482.108 856.286 484.233 856.286 485.155C856.301 485.35 856.283 481.391 855.176 482.081C848.593 486.239 846.46 499.314 844.353 505.86C841.278 515.416 838.662 525.184 837.585 535.125C837.312 537.636 837.164 540.147 837.13 542.653C836.906 541.983 836.696 541.307 836.464 540.639C832.665 529.741 827.537 519.106 821.143 509.298C819.569 506.885 799.777 483.074 798.228 486.718C798.381 487.247 798.701 487.687 799.189 488.036C799.218 488.076 799.218 488.054 799.202 487.994C800.364 490.291 803.669 493.838 804.698 495.85C807.289 500.915 809.302 506.289 811.348 511.56C815.672 522.7 819.682 533.953 823.569 545.229C824.475 547.855 825.418 550.467 826.381 553.071C816.458 535.566 803.221 519.674 785 510.576C791.223 514.449 795.304 521.735 799.507 527.313C804.576 534.042 809.915 540.59 814.993 547.311C820.983 555.24 828.032 563.59 833.793 572.364C839.374 586.696 844.798 601.043 848.146 616.108C846.774 610.903 848.038 603.71 847.803 598.247C847.617 593.899 847.201 589.587 846.632 585.282C847.336 587.224 847.943 589.167 848.217 590.974C847.966 587.943 847.677 584.931 847.367 581.934C848.164 579.129 848.947 576.512 849.475 574.355C852.184 563.294 855.41 552.423 859.804 541.828C863.869 532.027 868.532 522.35 873.613 512.969C875.983 508.595 878.386 504.238 880.773 499.873C882.336 497.015 883.824 492.44 886 489.702C871.935 505.43 856.569 521.272 847.646 540.144Z" fill="#E88080"/>
<path fill-rule="evenodd" clip-rule="evenodd" d="M805.837 562.099C805.837 597.288 808.107 625.814 838.58 625.814C869.053 625.814 871.324 597.288 871.324 562.099" fill="#F2F2F2"/>
<path fill-rule="evenodd" clip-rule="evenodd" d="M69.2026 537.547C68.2183 539.479 67.3406 541.449 66.5654 543.449C66.5381 539.33 66.7387 535.181 67.2866 530.975C68.2232 523.771 69.6537 516.605 70.9979 509.45C71.9639 504.308 71.9029 495.072 75.5692 490.974C76.5745 490.088 76.8166 491.826 76.8166 492.58C76.8292 492.739 76.8137 489.502 75.8379 490.066C70.0374 493.466 68.158 504.158 66.3009 509.512C63.5915 517.326 61.2862 525.313 60.337 533.443C60.0971 535.496 59.9666 537.549 59.9364 539.599C59.7393 539.051 59.5541 538.498 59.3492 537.952C56.0014 529.04 51.4834 520.343 45.8485 512.323C44.4615 510.35 27.0216 490.878 25.6563 493.858C25.791 494.291 26.0731 494.65 26.5031 494.936C26.5284 494.968 26.5291 494.95 26.5143 494.902C27.5386 496.78 30.4508 499.681 31.3579 501.326C33.6407 505.467 35.415 509.862 37.218 514.173C41.0274 523.282 44.5611 532.484 47.9868 541.705C48.7845 543.853 49.6159 545.988 50.464 548.118C41.7206 533.803 30.0565 520.807 14 513.368C19.4841 516.535 23.0795 522.493 26.783 527.055C31.2498 532.557 35.9545 537.912 40.4297 543.408C45.7082 549.892 51.9191 556.72 56.9962 563.895C61.9141 575.614 66.6931 587.346 69.6432 599.666C68.4344 595.41 69.5484 589.527 69.3415 585.06C69.1773 581.505 68.8111 577.978 68.3095 574.458C68.9297 576.046 69.4643 577.635 69.7063 579.113C69.4853 576.634 69.2306 574.171 68.957 571.721C69.6593 569.427 70.3489 567.286 70.8148 565.523C73.2021 556.478 76.0448 547.588 79.916 538.924C83.4982 530.909 87.6072 522.996 92.0845 515.325C94.173 511.748 96.2903 508.185 98.3943 504.615C99.7714 502.279 101.083 498.537 103 496.298C90.6063 509.16 77.0656 522.114 69.2026 537.547Z" fill="#CC5757"/>
<path fill-rule="evenodd" clip-rule="evenodd" d="M32.3611 555.5C32.3611 584.276 34.3617 607.603 61.2142 607.603C88.0667 607.603 90.0673 584.276 90.0673 555.5" fill="#DDE3E9"/>
</svg>
