<svg width="886" height="617" viewBox="0 0 886 617" fill="none" xmlns="http://www.w3.org/2000/svg">
<path fill-rule="evenodd" clip-rule="evenodd" d="M793.594 138.039C792.98 137.592 791.522 137.434 790.844 137.3C788.027 136.745 785.124 136.503 782.251 136.503C773.393 136.516 764.391 137.386 755.68 138.891C750.149 139.846 743.463 143.061 737.961 141.315C728.376 138.273 718.689 138.422 709.595 142.765C701.281 146.737 694.97 154.28 691.286 162.43C690.731 163.66 688.476 168.188 687.838 171.241C687.565 171.865 687.303 172.494 687.067 173.131C686.396 174.942 685.795 176.785 685.236 178.631C684.997 179.419 684.396 181.158 685.109 181.494C683.97 183.597 682.96 185.764 682.118 188.002C679.672 194.51 676.996 201.648 676.137 208.545C675.818 211.099 675.806 213.668 676.102 216.227C676.248 217.491 676.188 220.035 677.045 220.996C678.865 223.037 679.799 220.18 679.594 218.82C678.027 208.45 681.052 198.711 684.637 188.963C686.956 182.66 690.765 176.893 695.032 171.67C698.485 167.443 702.19 164.114 706.923 161.311C712.712 157.884 718.901 155.113 725.033 152.334C729.066 150.505 733.104 148.725 737.25 147.15C738.171 146.799 739.622 145.9 740.644 145.897C742.805 145.889 745.869 147.484 747.956 148.077C754.824 150.03 761.779 152.529 768.876 153.526C773.428 154.167 777.693 153.446 781.951 151.929C782.386 151.775 783.115 151.377 784.008 150.808C787.169 149.592 790.159 148.062 792.763 145.854C794.263 144.582 795.624 142.938 796.865 141.434C797.237 140.984 797.401 140.468 797.406 139.978C797.688 139.831 797.874 139.659 797.917 139.459C798.226 137.978 795.402 137.951 793.594 138.039Z" fill="#E88080"/>
<path fill-rule="evenodd" clip-rule="evenodd" d="M74.0062 261.48C72.2683 262.887 70.5639 264.325 68.901 265.82C67.6337 266.96 65.3909 268.325 64.9359 270.052C64.463 271.846 65.9561 273.526 67.1356 274.611C73.3729 280.35 80.3963 284.229 89.0392 284.874C102.347 285.868 113.929 282.47 125.475 275.783C133.586 271.085 138.959 264.137 140.132 254.755C149.791 258.77 159.133 264.303 167.072 271.094C170.989 274.445 174.363 278.158 177.484 282.273C179.482 284.909 181.416 287.588 183.21 290.369C183.99 291.578 184.782 293.721 186.07 294.417C187.582 295.235 189.408 293.953 189.333 292.272C189.271 290.874 187.761 289.251 187.055 288.108C185.881 286.209 184.691 284.323 183.437 282.476C181.409 279.487 179.312 276.539 177.025 273.741C171.886 267.455 165.347 262.263 158.568 257.835C145.564 249.339 131.292 243.988 115.469 243.534C105.739 243.255 97.5546 246.579 89.2343 251.544C84.0542 254.634 78.7068 257.673 74.0062 261.48Z" fill="#FFADAD"/>
<path fill-rule="evenodd" clip-rule="evenodd" d="M200.214 220.391C190.075 209.949 179.901 199.638 168.573 190.443C161.897 185.026 154.861 180.099 147.971 174.962C148.766 175.658 149.546 176.375 150.307 177.109C148.156 175.649 145.34 174.824 143.06 173.472C140.516 171.965 138.085 170.24 135.7 168.502C131.045 165.11 126.46 161.654 121.675 158.439C116.344 154.857 110.819 151.547 105.397 148.101C100.795 145.175 96.1372 141.974 91.2144 139.582C88.5314 138.279 85.842 136.734 83.148 135.374C82.2463 134.92 73.0974 129.143 73.1204 129.125C73.6262 128.744 78.2301 130.907 78.942 131.198C81.0219 132.048 83.0108 133.064 85.0105 134.077C83.9129 131.912 83.0441 129.638 82.5712 127.243C82.4251 126.504 81.2546 121.125 81.8535 120.673C82.1527 120.448 85.0716 130.073 85.221 130.998C85.3425 131.75 85.3247 132.833 85.5707 133.544C85.968 134.694 85.9479 134.347 86.8231 134.994C88.4271 136.181 90.5562 136.923 92.2922 137.915C93.2283 138.438 96.1266 140.51 97.8724 141.101C103.155 143.666 108.509 147.613 113.527 150.89C112.21 148.415 111.208 145.826 110.477 143.114C110.303 142.47 108.427 136.692 108.882 136.349C109.394 135.964 112.969 144.787 113.18 145.622C113.574 147.174 113.655 148.901 114.148 150.411C114.688 152.068 116.375 152.655 117.895 153.621C123.488 157.174 128.889 160.95 134.199 164.899C139.994 154.593 133.313 142.148 127.681 133.501C123.622 127.269 118.158 121.926 112.388 117.261C104.688 111.036 95.8783 106.063 87.0792 101.514C76.8265 96.213 65.7451 92.9287 54.2246 91.4115C48.1992 90.6178 42.0348 90.64 35.9486 90.8945C32.9754 91.0186 30.1216 91.4124 27.2723 92.382C25.9882 92.8197 24.7471 93.3711 23.5376 93.9885C22.6187 94.4576 20.3957 94.9529 19.8674 95.6519C15.518 101.313 13.293 106.954 13.6328 114.067C13.9541 120.801 16.0808 127.538 18.9669 133.545C22.1811 140.233 26.315 146.303 31.7215 151.398C35.8463 155.285 40.458 158.668 45.0392 162.007C61.3332 173.882 81.9911 184.21 103.095 181.556C109.926 180.698 116.423 178.309 122.495 175.062C123.926 174.298 125.348 173.524 126.698 172.62C127.609 172.012 130.043 169.268 130.959 169.168C132.215 169.032 134.919 171.585 136.097 172.363C145.048 178.271 153.764 184.5 162.298 190.98C171.377 197.876 180.011 205.24 188.391 212.95C191.955 216.23 195.496 219.516 198.957 222.906C199.762 223.695 201.733 226.599 203.193 226.73C204.117 226.814 204.74 226.025 204.608 225.17C204.379 223.684 201.252 221.46 200.214 220.391Z" fill="#FFADAD"/>
<path fill-rule="evenodd" clip-rule="evenodd" d="M782.949 179.865C779.022 179.007 774.685 179.073 770.684 179.144C749.229 179.436 728.161 189.594 714.449 205.824C702.776 219.642 699.566 236.821 697.26 254.187C697.031 255.911 696.933 257.624 696.804 259.352C696.776 259.723 696.735 260.054 696.691 260.365C695.784 261.176 695.308 262.121 695.845 263.16C693.847 267.532 692.157 272.015 690.707 276.639C686.438 290.248 682.097 304.117 684.771 318.429C685.396 310.553 686.71 302.499 688.282 294.753C688.373 294.308 688.47 293.867 688.572 293.428C688.583 293.381 688.592 293.335 688.603 293.289C689.159 290.917 689.882 288.615 690.762 286.351C690.771 286.326 690.78 286.301 690.79 286.277C690.906 285.979 691.029 285.682 691.151 285.386C691.403 284.772 691.662 284.16 691.936 283.55C692.029 283.342 692.118 283.133 692.204 282.922C693.484 279.783 694.025 276.247 695.173 272.999C695.447 272.261 695.734 271.525 696.034 270.793C696.052 270.75 696.07 270.707 696.088 270.664C696.901 268.695 697.798 266.75 698.748 264.825C699.264 264.438 699.539 263.476 699.984 262.602C700.076 262.429 700.795 261.281 701.009 260.619C701.568 259.538 702.125 258.456 702.688 257.377C702.671 257.383 702.655 257.389 702.638 257.395C703.201 256.359 703.766 255.327 704.327 254.299C704.45 254.073 704.574 253.847 704.699 253.621C704.9 253.26 705.101 252.9 705.302 252.54C707.182 249.177 709.174 245.881 711.244 242.626C711.982 241.465 713.747 239.799 714.085 238.495C714.097 238.446 714.1 238.401 714.108 238.354C718.598 232.048 723.768 226.23 729.967 221.621C729.218 222.431 727.625 225.18 727.204 225.724C725.915 227.391 724.516 228.942 723.112 230.512C720.597 233.325 718.141 236.227 715.959 239.295C711.969 244.907 708.526 250.813 705.272 256.838C705.242 256.874 705.208 256.907 705.178 256.943C703.543 258.959 702.513 262.006 701.336 264.312C705.995 262.155 711.147 260.749 715.929 258.833C720.697 256.922 725.336 254.795 729.815 252.297C735.767 248.977 741.941 245.229 747.565 240.987C754.01 236.989 759.426 231.486 764.207 225.712C769.863 218.88 775.046 211.988 778.252 203.692C779.827 199.616 781.066 195.365 781.8 191.065C781.832 190.877 781.873 190.674 781.918 190.463C782.669 188.978 783.341 187.459 783.905 185.906C784.8 183.442 786.915 180.731 782.949 179.865Z" fill="#CC5757"/>
<path fill-rule="evenodd" clip-rule="evenodd" d="M117.455 208.731C116.225 207.398 114.843 206.196 113.221 205.339C112.811 205.123 109.755 203.671 109.556 203.989C109.093 204.731 117.086 208.305 117.455 208.731ZM131.942 199.831C131.932 199.888 132.991 201.685 133.28 202.238C133.894 203.413 134.461 204.611 134.994 205.812C134.204 203.692 133.393 201.725 131.942 199.831ZM57.8537 214.465C56.8333 214.793 55.6065 213.498 56.9301 213.179C58.001 212.923 57.9484 212.863 58.4293 212C58.8198 211.3 59.0603 210.445 59.403 209.71C60.1297 208.151 60.9542 206.664 61.9661 205.271C64.1349 202.284 66.7774 199.711 69.7412 197.542C74.9134 193.757 80.7128 190.298 86.8647 188.56C96.6463 185.797 107.779 185.626 117.576 187.542C123.643 188.729 129.188 190.791 133.217 195.677C135.231 198.118 136.812 200.978 137.503 204.128C137.683 204.951 137.649 205.866 137.875 206.672C138.222 207.912 138.069 207.582 139.518 207.823C141.101 208.086 142.682 208.355 144.263 208.628C148.402 209.344 152.566 210.104 156.599 211.266C157.926 211.648 159.224 212.115 160.493 212.658C161.452 213.069 165.271 214.357 165.735 215.603C166.508 217.676 163.919 216.736 163.115 216.285C162.41 215.889 161.687 215.52 160.953 215.18C159.105 214.325 157.18 213.664 155.211 213.137C153.084 212.568 150.913 212.143 148.75 211.718C146.733 211.322 144.709 210.961 142.682 210.616C141.556 210.425 140.429 210.238 139.302 210.052C138.917 209.989 138.238 209.655 138.289 210.156C135.92 209.699 133.357 209.765 130.944 209.639C127.988 209.485 125.021 209.359 122.055 209.451C119.916 209.518 117.775 209.658 115.646 209.945C114.403 210.114 113.179 210.359 111.959 210.67C111.288 210.841 108.645 211.204 108.28 211.788C108.437 211.537 111.354 211.781 111.725 211.766C113.21 211.711 114.684 211.564 116.163 211.398C118.909 211.092 121.656 210.931 124.41 210.955C124.399 211.438 122.518 212.299 122.059 212.62C121.029 213.338 120.043 214.122 119.123 214.982C117.502 216.496 115.561 218.372 114.44 220.166C114.77 219.638 116.4 218.949 116.979 218.546C117.905 217.898 118.813 217.208 119.672 216.469C120.465 215.788 121.205 215.051 121.933 214.299C122.66 213.547 123.648 211.982 124.604 211.481C124.662 211.451 125.078 211.78 125.315 211.668C125.554 211.555 125.851 210.991 125.912 210.968C126.802 210.625 128.492 211.052 129.428 211.096C131.854 211.207 134.278 211.354 136.703 211.487C137.454 211.528 138.092 211.358 138.376 211.912C138.678 212.502 138.124 214.056 137.967 214.699C137.382 217.09 136.344 219.233 134.709 221.085C131.648 224.554 127.874 226.867 123.61 228.414C107.277 234.339 89.9017 236.712 73.5742 230.549C66.8147 227.997 56.6348 223.437 57.8537 214.465Z" fill="#E88080"/>
<path fill-rule="evenodd" clip-rule="evenodd" d="M805.667 493.621C816.778 568.837 547.317 617.898 315.385 583.659C83.4535 549.421 -22.9458 415.717 87.7282 344.474C198.402 273.231 794.556 418.405 805.667 493.621Z" fill="#9164D9"/>
<mask id="mask0" mask-type="alpha" maskUnits="userSpaceOnUse" x="45" y="326" width="763" height="270">
<path fill-rule="evenodd" clip-rule="evenodd" d="M806.913 494.284C818.024 569.5 548.563 618.561 316.631 584.322C84.6992 550.084 -21.7001 416.38 88.9739 345.137C199.648 273.894 795.802 419.068 806.913 494.284Z" fill="#C394FF"/>
</mask>
<g mask="url(#mask0)">
<path fill-rule="evenodd" clip-rule="evenodd" d="M450.812 274.803C320.686 340.448 339.355 477.712 227.227 446.094C144.809 422.856 -33.245 533.256 -90.9021 327.017C-118.589 227.981 -46.8825 130.419 21.2769 121.301C89.4381 112.183 128.362 -20.6398 168.831 16.5551C265.983 105.873 263.073 28.7151 339.15 71.4889C422.314 118.251 509.544 245.176 450.812 274.803Z" fill="#8258CF"/>
<path fill-rule="evenodd" clip-rule="evenodd" d="M265.522 487.643C267.761 550.124 175.265 662.051 109.409 664.436C43.5386 666.819 -11.681 618.102 -13.9291 555.623C-16.179 493.142 35.3935 440.559 101.257 438.176C167.131 435.79 263.265 425.164 265.522 487.643Z" fill="#9164D9"/>
<path fill-rule="evenodd" clip-rule="evenodd" d="M871.81 539.779C764.348 688.355 638.627 510.208 536.785 415.532C434.961 320.856 385.013 84.8258 571.865 7.56321C700.312 -45.5481 769.314 29.9893 871.138 124.665C972.981 219.341 968.855 405.628 871.81 539.779Z" fill="#8258CF"/>
</g>
<path d="M331.611 0.634293H166.957C161.87 0.634293 157.746 4.75839 157.746 9.84572V339.154C157.746 344.242 161.87 348.366 166.957 348.366H331.611C336.699 348.366 340.823 344.242 340.823 339.154V9.84572C340.823 4.75839 336.699 0.634293 331.611 0.634293Z" fill="#F2F2F2"/>
<path d="M248.709 326.489C258.247 326.489 265.98 318.756 265.98 309.217C265.98 299.678 258.247 291.946 248.709 291.946C239.17 291.946 231.437 299.678 231.437 309.217C231.437 318.756 239.17 326.489 248.709 326.489Z" fill="white"/>
<path d="M233.74 23.6629C235.012 23.6629 236.043 22.6318 236.043 21.36C236.043 20.0882 235.012 19.0571 233.74 19.0571C232.468 19.0571 231.437 20.0882 231.437 21.36C231.437 22.6318 232.468 23.6629 233.74 23.6629Z" fill="white"/>
<path d="M263.677 19.0571H244.103C242.831 19.0571 241.8 20.0882 241.8 21.36C241.8 22.6318 242.831 23.6628 244.103 23.6628H263.677C264.949 23.6628 265.98 22.6318 265.98 21.36C265.98 20.0882 264.949 19.0571 263.677 19.0571Z" fill="white"/>
<path d="M320.097 32.8743H178.471C175.928 32.8743 173.866 34.9363 173.866 37.48V90.4457C173.866 92.9894 175.928 95.0514 178.471 95.0514H320.097C322.641 95.0514 324.703 92.9894 324.703 90.4457V37.48C324.703 34.9363 322.641 32.8743 320.097 32.8743Z" fill="white"/>
<path d="M299.371 51.5275H222.226C220.318 51.5275 218.771 53.074 218.771 54.9817V57.3997C218.771 59.3075 220.318 60.854 222.226 60.854H299.371C301.279 60.854 302.826 59.3075 302.826 57.3997V54.9817C302.826 53.074 301.279 51.5275 299.371 51.5275Z" fill="#DDE3E9"/>
<path d="M271.737 67.0717H222.226C220.318 67.0717 218.771 68.6183 218.771 70.526V72.944C218.771 74.8518 220.318 76.3983 222.226 76.3983H271.737C273.645 76.3983 275.191 74.8518 275.191 72.944V70.526C275.191 68.6183 273.645 67.0717 271.737 67.0717Z" fill="#DDE3E9"/>
<path d="M198.046 77.78C205.677 77.78 211.863 71.5939 211.863 63.9629C211.863 56.3319 205.677 50.1457 198.046 50.1457C190.415 50.1457 184.229 56.3319 184.229 63.9629C184.229 71.5939 190.415 77.78 198.046 77.78Z" fill="#C5CFD6"/>
<path d="M320.097 104.263H178.471C175.928 104.263 173.866 106.325 173.866 108.869V148.017C173.866 150.561 175.928 152.623 178.471 152.623H320.097C322.641 152.623 324.703 150.561 324.703 148.017V108.869C324.703 106.325 322.641 104.263 320.097 104.263Z" fill="white"/>
<path d="M299.371 118.771H222.226C220.318 118.771 218.771 120.317 218.771 122.225V122.571C218.771 124.478 220.318 126.025 222.226 126.025H299.371C301.279 126.025 302.826 124.478 302.826 122.571V122.225C302.826 120.317 301.279 118.771 299.371 118.771Z" fill="#DDE3E9"/>
<path d="M271.737 130.861H222.226C220.318 130.861 218.771 132.407 218.771 134.315V134.661C218.771 136.568 220.318 138.115 222.226 138.115H271.737C273.645 138.115 275.191 136.568 275.191 134.661V134.315C275.191 132.407 273.645 130.861 271.737 130.861Z" fill="#DDE3E9"/>
<path d="M198.046 142.26C205.677 142.26 211.863 136.074 211.863 128.443C211.863 120.812 205.677 114.626 198.046 114.626C190.415 114.626 184.229 120.812 184.229 128.443C184.229 136.074 190.415 142.26 198.046 142.26Z" fill="#C5CFD6"/>
<path d="M320.097 161.834H178.471C175.928 161.834 173.866 163.896 173.866 166.44V205.589C173.866 208.132 175.928 210.194 178.471 210.194H320.097C322.641 210.194 324.703 208.132 324.703 205.589V166.44C324.703 163.896 322.641 161.834 320.097 161.834Z" fill="white"/>
<path d="M299.371 176.342H222.226C220.318 176.342 218.771 177.889 218.771 179.797V180.142C218.771 182.05 220.318 183.596 222.226 183.596H299.371C301.279 183.596 302.826 182.05 302.826 180.142V179.797C302.826 177.889 301.279 176.342 299.371 176.342Z" fill="#DDE3E9"/>
<path d="M271.737 188.432H222.226C220.318 188.432 218.771 189.979 218.771 191.887V192.232C218.771 194.14 220.318 195.686 222.226 195.686H271.737C273.645 195.686 275.191 194.14 275.191 192.232V191.887C275.191 189.979 273.645 188.432 271.737 188.432Z" fill="#DDE3E9"/>
<path d="M198.046 199.831C205.677 199.831 211.863 193.645 211.863 186.014C211.863 178.383 205.677 172.197 198.046 172.197C190.415 172.197 184.229 178.383 184.229 186.014C184.229 193.645 190.415 199.831 198.046 199.831Z" fill="#AFB9C5"/>
<path d="M320.097 219.406H178.471C175.928 219.406 173.866 221.468 173.866 224.011V263.16C173.866 265.704 175.928 267.766 178.471 267.766H320.097C322.641 267.766 324.703 265.704 324.703 263.16V224.011C324.703 221.468 322.641 219.406 320.097 219.406Z" fill="white"/>
<path d="M299.371 233.914H222.226C220.318 233.914 218.771 235.46 218.771 237.368V237.713C218.771 239.621 220.318 241.168 222.226 241.168H299.371C301.279 241.168 302.826 239.621 302.826 237.713V237.368C302.826 235.46 301.279 233.914 299.371 233.914Z" fill="#DDE3E9"/>
<path d="M271.737 246.004H222.226C220.318 246.004 218.771 247.55 218.771 249.458V249.803C218.771 251.711 220.318 253.258 222.226 253.258H271.737C273.645 253.258 275.191 251.711 275.191 249.803V249.458C275.191 247.55 273.645 246.004 271.737 246.004Z" fill="#DDE3E9"/>
<path d="M198.046 257.403C205.677 257.403 211.863 251.217 211.863 243.586C211.863 235.955 205.677 229.769 198.046 229.769C190.415 229.769 184.229 235.955 184.229 243.586C184.229 251.217 190.415 257.403 198.046 257.403Z" fill="#C5CFD6"/>
<path fill-rule="evenodd" clip-rule="evenodd" d="M192.45 281.583C190.924 281.583 189.403 281.613 187.88 281.693C186.719 281.753 184.944 281.513 183.961 282.237C182.94 282.988 183.011 284.527 183.17 285.614C184.013 291.362 186.071 296.458 190.376 300.53C197.004 306.8 204.603 309.986 213.595 311.405C219.911 312.402 225.742 311.018 230.392 306.526C233.789 312.831 236.366 319.809 237.659 326.851C238.297 330.326 238.492 333.759 238.38 337.298C238.308 339.564 238.183 341.825 237.94 344.081C237.835 345.061 237.335 346.545 237.719 347.471C238.169 348.559 239.687 348.664 240.369 347.736C240.937 346.964 240.832 345.448 240.949 344.535C241.142 343.017 241.321 341.499 241.449 339.974C241.657 337.507 241.811 335.032 241.799 332.555C241.773 326.989 240.536 321.402 238.843 316.119C235.596 305.984 230.328 296.977 222.134 289.909C217.096 285.563 211.33 283.804 204.788 282.859C200.715 282.271 196.576 281.583 192.45 281.583Z" fill="#BF5F64"/>
<path fill-rule="evenodd" clip-rule="evenodd" d="M215.975 321.883C199.511 321.883 188.422 335.152 183.179 348.943C181.203 354.142 180.74 359.85 179.978 365.308C179.733 367.06 179.824 369.729 179.113 371.29C178.855 371.856 178.263 372.059 178.546 372.83C178.717 373.297 179.053 373.583 179.558 373.676C180.594 373.866 182.058 372.738 182.946 372.293C190.31 368.6 195.149 362.889 199.096 355.902C201.543 351.571 204.026 347.075 205.479 342.321C206.367 339.416 206.884 336.357 207.188 333.344C207.307 332.158 207.423 330.943 207.416 329.749C207.409 328.564 206.858 327.938 206.462 326.907C211.955 324.828 218.156 324.261 223.721 326.416C228.868 328.409 233.143 332.261 235.537 337.1C236.159 338.357 236.639 339.684 236.988 341.038C237.217 341.924 237.228 343.074 237.652 343.876C238.68 345.818 240.842 344.519 240.635 342.711C240.056 337.666 237.17 332.601 233.481 329.094C228.829 324.67 222.522 321.883 215.975 321.883Z" fill="#BF5F64"/>
<path d="M407.606 30.5714H242.951C237.864 30.5714 233.74 34.6955 233.74 39.7829V369.091C233.74 374.179 237.864 378.303 242.951 378.303H407.606C412.693 378.303 416.817 374.179 416.817 369.091V39.7829C416.817 34.6955 412.693 30.5714 407.606 30.5714Z" fill="#DDE3E9"/>
<path d="M324.703 356.426C334.242 356.426 341.974 348.693 341.974 339.154C341.974 329.616 334.242 321.883 324.703 321.883C315.164 321.883 307.431 329.616 307.431 339.154C307.431 348.693 315.164 356.426 324.703 356.426Z" fill="white"/>
<path d="M309.734 53.6C311.006 53.6 312.037 52.569 312.037 51.2971C312.037 50.0253 311.006 48.9943 309.734 48.9943C308.462 48.9943 307.431 50.0253 307.431 51.2971C307.431 52.569 308.462 53.6 309.734 53.6Z" fill="white"/>
<path d="M339.671 48.9943H320.097C318.825 48.9943 317.794 50.0253 317.794 51.2971C317.794 52.569 318.825 53.6 320.097 53.6H339.671C340.943 53.6 341.974 52.569 341.974 51.2971C341.974 50.0253 340.943 48.9943 339.671 48.9943Z" fill="white"/>
<path d="M396.091 62.8114H254.466C251.922 62.8114 249.86 64.8735 249.86 67.4172V120.383C249.86 122.927 251.922 124.989 254.466 124.989H396.091C398.635 124.989 400.697 122.927 400.697 120.383V67.4172C400.697 64.8735 398.635 62.8114 396.091 62.8114Z" fill="white"/>
<path d="M340.823 81.4646H263.677C261.769 81.4646 260.223 83.0111 260.223 84.9189V87.3369C260.223 89.2446 261.769 90.7912 263.677 90.7912H340.823C342.731 90.7912 344.277 89.2446 344.277 87.3369V84.9189C344.277 83.0111 342.731 81.4646 340.823 81.4646Z" fill="#DDE3E9"/>
<path d="M313.189 97.0089H263.677C261.769 97.0089 260.223 98.5554 260.223 100.463V102.881C260.223 104.789 261.769 106.335 263.677 106.335H313.189C315.096 106.335 316.643 104.789 316.643 102.881V100.463C316.643 98.5554 315.096 97.0089 313.189 97.0089Z" fill="#DDE3E9"/>
<path d="M384.577 101.96C389.029 101.96 392.637 98.3514 392.637 93.9C392.637 89.4486 389.029 85.84 384.577 85.84C380.126 85.84 376.517 89.4486 376.517 93.9C376.517 98.3514 380.126 101.96 384.577 101.96Z" fill="#DDE3E9"/>
<path d="M384.577 97.3543C386.485 97.3543 388.031 95.8078 388.031 93.9C388.031 91.9923 386.485 90.4457 384.577 90.4457C382.669 90.4457 381.123 91.9923 381.123 93.9C381.123 95.8078 382.669 97.3543 384.577 97.3543Z" fill="#F2F2F2"/>
<path d="M396.091 134.2H254.466C251.922 134.2 249.86 136.262 249.86 138.806V177.954C249.86 180.498 251.922 182.56 254.466 182.56H396.091C398.635 182.56 400.697 180.498 400.697 177.954V138.806C400.697 136.262 398.635 134.2 396.091 134.2Z" fill="white"/>
<path d="M375.366 148.708H298.22C296.312 148.708 294.766 150.255 294.766 152.162V152.508C294.766 154.415 296.312 155.962 298.22 155.962H375.366C377.273 155.962 378.82 154.415 378.82 152.508V152.162C378.82 150.255 377.273 148.708 375.366 148.708Z" fill="#DDE3E9"/>
<path d="M347.731 160.798H298.22C296.312 160.798 294.766 162.345 294.766 164.252V164.598C294.766 166.505 296.312 168.052 298.22 168.052H347.731C349.639 168.052 351.186 166.505 351.186 164.598V164.252C351.186 162.345 349.639 160.798 347.731 160.798Z" fill="#DDE3E9"/>
<path d="M274.04 172.197C281.671 172.197 287.857 166.011 287.857 158.38C287.857 150.749 281.671 144.563 274.04 144.563C266.409 144.563 260.223 150.749 260.223 158.38C260.223 166.011 266.409 172.197 274.04 172.197Z" fill="#C5CFD6"/>
<path d="M396.091 191.771H254.466C251.922 191.771 249.86 193.833 249.86 196.377V235.526C249.86 238.069 251.922 240.131 254.466 240.131H396.091C398.635 240.131 400.697 238.069 400.697 235.526V196.377C400.697 193.833 398.635 191.771 396.091 191.771Z" fill="white"/>
<path d="M340.823 206.279H263.677C261.769 206.279 260.223 207.826 260.223 209.734V210.079C260.223 211.987 261.769 213.533 263.677 213.533H340.823C342.731 213.533 344.277 211.987 344.277 210.079V209.734C344.277 207.826 342.731 206.279 340.823 206.279Z" fill="#DDE3E9"/>
<path d="M313.189 218.369H263.677C261.769 218.369 260.223 219.916 260.223 221.824V222.169C260.223 224.077 261.769 225.623 263.677 225.623H313.189C315.096 225.623 316.643 224.077 316.643 222.169V221.824C316.643 219.916 315.096 218.369 313.189 218.369Z" fill="#AFB9C5"/>
<path d="M384.577 224.011C389.029 224.011 392.637 220.403 392.637 215.951C392.637 211.5 389.029 207.891 384.577 207.891C380.126 207.891 376.517 211.5 376.517 215.951C376.517 220.403 380.126 224.011 384.577 224.011Z" fill="#DDE3E9"/>
<path d="M384.577 219.406C386.485 219.406 388.031 217.859 388.031 215.951C388.031 214.044 386.485 212.497 384.577 212.497C382.669 212.497 381.123 214.044 381.123 215.951C381.123 217.859 382.669 219.406 384.577 219.406Z" fill="#F2F2F2"/>
<path d="M396.091 249.343H254.466C251.922 249.343 249.86 251.405 249.86 253.949V293.097C249.86 295.641 251.922 297.703 254.466 297.703H396.091C398.635 297.703 400.697 295.641 400.697 293.097V253.949C400.697 251.405 398.635 249.343 396.091 249.343Z" fill="white"/>
<path d="M375.366 263.851H298.22C296.312 263.851 294.766 265.397 294.766 267.305V267.651C294.766 269.558 296.312 271.105 298.22 271.105H375.366C377.273 271.105 378.82 269.558 378.82 267.651V267.305C378.82 265.397 377.273 263.851 375.366 263.851Z" fill="#DDE3E9"/>
<path d="M347.731 275.941H298.22C296.312 275.941 294.766 277.487 294.766 279.395V279.741C294.766 281.648 296.312 283.195 298.22 283.195H347.731C349.639 283.195 351.186 281.648 351.186 279.741V279.395C351.186 277.487 349.639 275.941 347.731 275.941Z" fill="#DDE3E9"/>
<path d="M274.04 287.34C281.671 287.34 287.857 281.154 287.857 273.523C287.857 265.892 281.671 259.706 274.04 259.706C266.409 259.706 260.223 265.892 260.223 273.523C260.223 281.154 266.409 287.34 274.04 287.34Z" fill="#C5CFD6"/>
<path d="M686.251 59.3571H318.946C313.858 59.3571 309.734 63.4812 309.734 68.5686V448.54C309.734 453.627 313.858 457.751 318.946 457.751H686.251C691.339 457.751 695.463 453.627 695.463 448.54V68.5686C695.463 63.4812 691.339 59.3571 686.251 59.3571Z" fill="#F2F2F2"/>
<path d="M667.829 108.869H605.651C600.564 108.869 596.44 112.993 596.44 118.08V192.923C596.44 198.01 600.564 202.134 605.651 202.134H667.829C672.916 202.134 677.04 198.01 677.04 192.923V118.08C677.04 112.993 672.916 108.869 667.829 108.869Z" fill="white"/>
<path d="M636.74 162.986C646.915 162.986 655.163 154.738 655.163 144.563C655.163 134.388 646.915 126.14 636.74 126.14C626.565 126.14 618.317 134.388 618.317 144.563C618.317 154.738 626.565 162.986 636.74 162.986Z" fill="#DDE3E9"/>
<path d="M662.071 167.591H611.409C609.501 167.591 607.954 169.138 607.954 171.046C607.954 172.953 609.501 174.5 611.409 174.5H662.071C663.979 174.5 665.526 172.953 665.526 171.046C665.526 169.138 663.979 167.591 662.071 167.591Z" fill="#DDE3E9"/>
<path d="M652.86 179.106H620.62C618.712 179.106 617.166 180.652 617.166 182.56C617.166 184.468 618.712 186.014 620.62 186.014H652.86C654.768 186.014 656.314 184.468 656.314 182.56C656.314 180.652 654.768 179.106 652.86 179.106Z" fill="#DDE3E9"/>
<path fill-rule="evenodd" clip-rule="evenodd" d="M318.946 59.3571H686.251C691.339 59.3571 695.463 63.4812 695.463 68.5686V90.4457H309.734V68.5686C309.734 63.4812 313.858 59.3571 318.946 59.3571Z" fill="#C5CFD6"/>
<path d="M324.703 80.0829C327.246 80.0829 329.309 78.0208 329.309 75.4771C329.309 72.9335 327.246 70.8714 324.703 70.8714C322.159 70.8714 320.097 72.9335 320.097 75.4771C320.097 78.0208 322.159 80.0829 324.703 80.0829Z" fill="#F2F2F2"/>
<path d="M338.52 80.0829C341.064 80.0829 343.126 78.0208 343.126 75.4771C343.126 72.9335 341.064 70.8714 338.52 70.8714C335.976 70.8714 333.914 72.9335 333.914 75.4771C333.914 78.0208 335.976 80.0829 338.52 80.0829Z" fill="#F2F2F2"/>
<path d="M352.337 80.0829C354.881 80.0829 356.943 78.0208 356.943 75.4771C356.943 72.9335 354.881 70.8714 352.337 70.8714C349.793 70.8714 347.731 72.9335 347.731 75.4771C347.731 78.0208 349.793 80.0829 352.337 80.0829Z" fill="#F2F2F2"/>
<path d="M667.829 211.346H605.651C600.564 211.346 596.44 215.47 596.44 220.557V425.511C596.44 430.599 600.564 434.723 605.651 434.723H667.829C672.916 434.723 677.04 430.599 677.04 425.511V220.557C677.04 215.47 672.916 211.346 667.829 211.346Z" fill="white"/>
<path d="M651.709 232.071H621.771C619.228 232.071 617.166 234.133 617.166 236.677V257.403C617.166 259.947 619.228 262.009 621.771 262.009H651.709C654.252 262.009 656.314 259.947 656.314 257.403V236.677C656.314 234.133 654.252 232.071 651.709 232.071Z" fill="#DDE3E9"/>
<path d="M651.709 271.22H621.771C619.228 271.22 617.166 273.282 617.166 275.826V295.4C617.166 297.944 619.228 300.006 621.771 300.006H651.709C654.252 300.006 656.314 297.944 656.314 295.4V275.826C656.314 273.282 654.252 271.22 651.709 271.22Z" fill="#AFB9C5"/>
<path d="M651.709 309.217H621.771C619.228 309.217 617.166 311.279 617.166 313.823V333.397C617.166 335.941 619.228 338.003 621.771 338.003H651.709C654.252 338.003 656.314 335.941 656.314 333.397V313.823C656.314 311.279 654.252 309.217 651.709 309.217Z" fill="#DDE3E9"/>
<path d="M651.709 385.211H621.771C619.228 385.211 617.166 387.273 617.166 389.817V409.391C617.166 411.935 619.228 413.997 621.771 413.997H651.709C654.252 413.997 656.314 411.935 656.314 409.391V389.817C656.314 387.273 654.252 385.211 651.709 385.211Z" fill="#DDE3E9"/>
<path d="M651.709 347.214H621.771C619.228 347.214 617.166 349.276 617.166 351.82V371.394C617.166 373.938 619.228 376 621.771 376H651.709C654.252 376 656.314 373.938 656.314 371.394V351.82C656.314 349.276 654.252 347.214 651.709 347.214Z" fill="#C5CFD6"/>
<path d="M582.623 110.02H332.763C330.219 110.02 328.157 112.082 328.157 114.626V159.531C328.157 162.075 330.219 164.137 332.763 164.137H582.623C585.166 164.137 587.229 162.075 587.229 159.531V114.626C587.229 112.082 585.166 110.02 582.623 110.02Z" fill="white"/>
<path d="M527.354 126.255H341.974C340.066 126.255 338.52 127.802 338.52 129.709V130.918C338.52 132.826 340.066 134.373 341.974 134.373H527.354C529.262 134.373 530.809 132.826 530.809 130.918V129.709C530.809 127.802 529.262 126.255 527.354 126.255Z" fill="#DDE3E9"/>
<path d="M464.136 139.784H341.974C340.066 139.784 338.52 141.331 338.52 143.239V144.448C338.52 146.355 340.066 147.902 341.974 147.902H464.136C466.044 147.902 467.59 146.355 467.59 144.448V143.239C467.59 141.331 466.044 139.784 464.136 139.784Z" fill="#DDE3E9"/>
<path d="M559.542 145.139C563.993 145.139 567.602 141.53 567.602 137.079C567.602 132.627 563.993 129.019 559.542 129.019C555.09 129.019 551.482 132.627 551.482 137.079C551.482 141.53 555.09 145.139 559.542 145.139Z" fill="#DDE3E9"/>
<path d="M559.542 140.533C561.449 140.533 562.996 138.986 562.996 137.079C562.996 135.171 561.449 133.624 559.542 133.624C557.634 133.624 556.087 135.171 556.087 137.079C556.087 138.986 557.634 140.533 559.542 140.533Z" fill="#F2F2F2"/>
<path d="M582.623 173.349H332.763C330.219 173.349 328.157 175.411 328.157 177.954V213.649C328.157 216.192 330.219 218.254 332.763 218.254H582.623C585.166 218.254 587.229 216.192 587.229 213.649V177.954C587.229 175.411 585.166 173.349 582.623 173.349Z" fill="white"/>
<path d="M527.441 186.82H341.888C340.028 186.82 338.52 188.328 338.52 190.188C338.52 192.048 340.028 193.556 341.888 193.556H527.441C529.301 193.556 530.809 192.048 530.809 190.188C530.809 188.328 529.301 186.82 527.441 186.82Z" fill="#DDE3E9"/>
<path d="M464.222 198.047H341.888C340.028 198.047 338.52 199.555 338.52 201.415C338.52 203.275 340.028 204.783 341.888 204.783H464.222C466.082 204.783 467.59 203.275 467.59 201.415C467.59 199.555 466.082 198.047 464.222 198.047Z" fill="#DDE3E9"/>
<path d="M559.542 203.861C563.993 203.861 567.602 200.253 567.602 195.801C567.602 191.35 563.993 187.741 559.542 187.741C555.09 187.741 551.482 191.35 551.482 195.801C551.482 200.253 555.09 203.861 559.542 203.861Z" fill="#DDE3E9"/>
<path d="M559.542 199.256C561.449 199.256 562.996 197.709 562.996 195.801C562.996 193.894 561.449 192.347 559.542 192.347C557.634 192.347 556.087 193.894 556.087 195.801C556.087 197.709 557.634 199.256 559.542 199.256Z" fill="#F2F2F2"/>
<path d="M582.623 227.466H332.763C330.219 227.466 328.157 229.528 328.157 232.071V267.766C328.157 270.309 330.219 272.371 332.763 272.371H582.623C585.166 272.371 587.229 270.309 587.229 267.766V232.071C587.229 229.528 585.166 227.466 582.623 227.466Z" fill="white"/>
<path d="M527.441 240.937H341.888C340.028 240.937 338.52 242.445 338.52 244.305C338.52 246.165 340.028 247.673 341.888 247.673H527.441C529.301 247.673 530.809 246.165 530.809 244.305C530.809 242.445 529.301 240.937 527.441 240.937Z" fill="#DDE3E9"/>
<path d="M464.222 252.164H341.888C340.028 252.164 338.52 253.672 338.52 255.532C338.52 257.392 340.028 258.9 341.888 258.9H464.222C466.082 258.9 467.59 257.392 467.59 255.532C467.59 253.672 466.082 252.164 464.222 252.164Z" fill="#DDE3E9"/>
<path d="M559.542 257.979C563.993 257.979 567.602 254.37 567.602 249.919C567.602 245.467 563.993 241.859 559.542 241.859C555.09 241.859 551.482 245.467 551.482 249.919C551.482 254.37 555.09 257.979 559.542 257.979Z" fill="#DDE3E9"/>
<path d="M559.542 253.373C561.449 253.373 562.996 251.826 562.996 249.919C562.996 248.011 561.449 246.464 559.542 246.464C557.634 246.464 556.087 248.011 556.087 249.919C556.087 251.826 557.634 253.373 559.542 253.373Z" fill="#AFB9C5"/>
<path d="M582.623 389.817H332.763C330.219 389.817 328.157 391.879 328.157 394.423V430.117C328.157 432.661 330.219 434.723 332.763 434.723H582.623C585.166 434.723 587.229 432.661 587.229 430.117V394.423C587.229 391.879 585.166 389.817 582.623 389.817Z" fill="white"/>
<path d="M527.441 403.289H341.888C340.028 403.289 338.52 404.797 338.52 406.657C338.52 408.517 340.028 410.025 341.888 410.025H527.441C529.301 410.025 530.809 408.517 530.809 406.657C530.809 404.797 529.301 403.289 527.441 403.289Z" fill="#DDE3E9"/>
<path d="M464.222 414.515H341.888C340.028 414.515 338.52 416.023 338.52 417.883C338.52 419.743 340.028 421.251 341.888 421.251H464.222C466.082 421.251 467.59 419.743 467.59 417.883C467.59 416.023 466.082 414.515 464.222 414.515Z" fill="#DDE3E9"/>
<path d="M559.542 420.33C563.993 420.33 567.602 416.721 567.602 412.27C567.602 407.819 563.993 404.21 559.542 404.21C555.09 404.21 551.482 407.819 551.482 412.27C551.482 416.721 555.09 420.33 559.542 420.33Z" fill="#DDE3E9"/>
<path d="M559.542 415.724C561.449 415.724 562.996 414.178 562.996 412.27C562.996 410.362 561.449 408.816 559.542 408.816C557.634 408.816 556.087 410.362 556.087 412.27C556.087 414.178 557.634 415.724 559.542 415.724Z" fill="#F2F2F2"/>
<path d="M582.623 335.7H332.763C330.219 335.7 328.157 337.762 328.157 340.306V376C328.157 378.544 330.219 380.606 332.763 380.606H582.623C585.166 380.606 587.229 378.544 587.229 376V340.306C587.229 337.762 585.166 335.7 582.623 335.7Z" fill="white"/>
<path d="M527.441 349.172H341.888C340.028 349.172 338.52 350.68 338.52 352.54C338.52 354.4 340.028 355.908 341.888 355.908H527.441C529.301 355.908 530.809 354.4 530.809 352.54C530.809 350.68 529.301 349.172 527.441 349.172Z" fill="#DDE3E9"/>
<path d="M464.222 360.398H341.888C340.028 360.398 338.52 361.906 338.52 363.766C338.52 365.626 340.028 367.134 341.888 367.134H464.222C466.082 367.134 467.59 365.626 467.59 363.766C467.59 361.906 466.082 360.398 464.222 360.398Z" fill="#DDE3E9"/>
<path d="M559.542 366.213C563.993 366.213 567.602 362.604 567.602 358.153C567.602 353.701 563.993 350.093 559.542 350.093C555.09 350.093 551.482 353.701 551.482 358.153C551.482 362.604 555.09 366.213 559.542 366.213Z" fill="#DDE3E9"/>
<path d="M559.542 361.607C561.449 361.607 562.996 360.061 562.996 358.153C562.996 356.245 561.449 354.699 559.542 354.699C557.634 354.699 556.087 356.245 556.087 358.153C556.087 360.061 557.634 361.607 559.542 361.607Z" fill="#F2F2F2"/>
<path d="M582.623 281.583H332.763C330.219 281.583 328.157 283.645 328.157 286.189V321.883C328.157 324.427 330.219 326.489 332.763 326.489H582.623C585.166 326.489 587.229 324.427 587.229 321.883V286.189C587.229 283.645 585.166 281.583 582.623 281.583Z" fill="white"/>
<path d="M527.441 295.055H341.888C340.028 295.055 338.52 296.562 338.52 298.422C338.52 300.283 340.028 301.79 341.888 301.79H527.441C529.301 301.79 530.809 300.283 530.809 298.422C530.809 296.562 529.301 295.055 527.441 295.055Z" fill="#DDE3E9"/>
<path d="M464.222 306.281H341.888C340.028 306.281 338.52 307.789 338.52 309.649C338.52 311.509 340.028 313.017 341.888 313.017H464.222C466.082 313.017 467.59 311.509 467.59 309.649C467.59 307.789 466.082 306.281 464.222 306.281Z" fill="#DDE3E9"/>
<path d="M559.542 312.096C563.993 312.096 567.602 308.487 567.602 304.036C567.602 299.584 563.993 295.976 559.542 295.976C555.09 295.976 551.482 299.584 551.482 304.036C551.482 308.487 555.09 312.096 559.542 312.096Z" fill="#DDE3E9"/>
<path d="M559.542 307.49C561.449 307.49 562.996 305.943 562.996 304.036C562.996 302.128 561.449 300.581 559.542 300.581C557.634 300.581 556.087 302.128 556.087 304.036C556.087 305.943 557.634 307.49 559.542 307.49Z" fill="#F2F2F2"/>
<path fill-rule="evenodd" clip-rule="evenodd" d="M791.015 255.532C786.473 252.453 780.434 251.646 774.999 251.646C753.771 251.646 733.818 259.522 716.581 271.257C707.136 277.687 698.687 285.875 691.228 294.401C686.922 299.322 683.083 304.647 680.365 310.568C678.53 314.564 677.272 318.729 676.418 323.024C675.378 328.258 674.552 333.599 674.178 338.921C674.031 341.016 672.814 352.136 676.298 352.324C676.278 352.598 676.273 352.86 676.295 353.094C668.729 364.923 664.055 378.787 659.72 391.931C655.949 403.368 652.589 414.903 650.407 426.735C647.535 442.314 645.649 458.126 644.752 473.928C644.559 477.325 644.427 480.722 644.313 484.123C644.216 487.024 644.119 489.924 644.023 492.825C643.917 496.075 643.345 499.817 643.862 503.049C644.312 505.863 646.747 505.437 646.855 502.637C646.985 499.255 646.964 495.866 647.112 492.482C647.309 487.99 647.511 483.498 647.731 479.008C649.261 447.813 655.002 417.077 665.596 387.611C669.883 375.687 674.796 364.399 681.11 353.368C686.662 343.67 693.339 334.281 700.165 325.536C706.799 317.038 713.697 308.737 721.825 301.537C728.422 295.695 735.678 290.605 743.136 285.869C752.61 279.854 762.065 273.985 772.327 269.367C777.661 266.967 783.096 264.819 788.471 262.516C789.439 262.101 790.476 261.7 791.406 261.22C794.509 259.619 793.487 257.209 791.015 255.532Z" fill="#E88080"/>
<path fill-rule="evenodd" clip-rule="evenodd" d="M705.616 364.486C714.225 364.486 721.887 365.604 729.819 369.026C736.667 371.979 742.907 375.888 748.966 380.144C757.488 386.13 764.201 393.097 768.9 402.327C771.707 407.842 773.766 415.645 771.881 421.66C769.66 428.744 763.563 434.652 755.532 433.404C750.566 432.633 746.014 429.346 742.239 426.252C737.724 422.55 734.11 418.1 731.125 413.157C726.257 405.094 723.396 395.978 719.261 387.553C717.298 383.554 715.402 379.526 713.051 375.726C711.888 373.844 710.649 371.98 708.884 370.581C707.939 369.833 703.957 368.539 705.48 366.859C683.154 367.152 663.374 384.299 659.088 405.523C658.689 407.502 658.377 409.496 658.048 411.486C657.84 412.743 657.924 417.378 656.8 418.181C654.322 419.952 655.364 414.572 655.47 413.797C655.745 411.795 656.038 409.794 656.346 407.797C658.019 396.935 662.855 386.836 670.92 379.09C680.142 370.231 692.586 364.486 705.616 364.486Z" fill="#CC5757"/>
<path fill-rule="evenodd" clip-rule="evenodd" d="M85.1342 337.699C106.627 373.757 131.66 408.67 146.693 448.094C146.087 443.447 145.445 438.805 144.726 434.17C140.911 409.597 136.171 385.204 131.189 360.841C128.652 348.437 125.969 336.077 123.217 323.719C121.737 317.081 120.275 310.439 118.764 303.808C118.398 302.2 118.084 299.395 117.626 296.551C132.236 344.493 146.324 392.471 156.63 441.565C157.982 448.008 159.133 454.44 160.076 460.86C160.399 459.396 160.716 457.931 161.063 456.47C165.233 438.96 171.488 421.589 178.935 405.217C182.495 397.387 186.585 389.729 191.4 382.593C194.402 378.145 201.483 372.858 204.222 368.302C189.243 395.777 183.834 430.154 175.184 460.024C173.073 467.313 170.949 474.59 168.867 481.88C181.911 455.722 202.149 434.229 230.286 424.916C196.227 447.42 175.798 486.83 162.031 527.136C161.986 527.614 161.932 528.092 161.886 528.571C165.936 520.883 171.039 513.929 177.955 509.059C192.757 498.632 209.177 501.67 223.535 510.613C212.266 503.45 191.9 509.973 182.419 517.253C175.631 522.465 169.83 529.457 164.792 536.278C163.585 537.914 161.938 539.821 160.199 541.857C157.76 557.69 153.785 573.415 148.157 589.014C149.086 584.537 148.414 577.376 148.672 574.038C148.7 573.677 148.723 573.315 148.75 572.955C147.895 576.37 147.069 579.747 146.273 583.069C147.855 576.73 148.714 570.112 149.385 563.425C149.558 560.552 149.727 557.678 149.905 554.805C149.849 549.352 149.624 543.877 149.244 538.393C147.897 533.064 146.389 528.037 145.145 523.856C140.657 508.772 134.077 494.32 125.979 480.839C118.59 468.536 109.745 457.392 99.535 447.313C94.0307 441.882 88.2701 436.709 82.5907 431.464C80.537 429.568 76.8662 424.906 73.6914 422.475C96.8127 435.222 120.611 449.013 137.478 469.551C135.5 461.957 133.353 454.471 131.081 447.135C119.554 409.915 105 371.34 85.1342 337.699Z" fill="#E88080"/>
<path fill-rule="evenodd" clip-rule="evenodd" d="M108.234 541.806C108.234 583.14 111.508 616.649 155.443 616.649C199.378 616.649 202.651 583.14 202.651 541.806" fill="#F2F2F2"/>
<path fill-rule="evenodd" clip-rule="evenodd" d="M690.849 530.276C690.854 530.287 690.858 530.299 690.865 530.313C690.858 530.301 690.849 530.255 690.849 530.276Z" fill="#C5CFD6"/>
<path fill-rule="evenodd" clip-rule="evenodd" d="M690.86 530.294C690.86 530.296 690.862 530.301 690.862 530.305C690.862 530.294 690.841 530.258 690.86 530.294Z" fill="#C5CFD6"/>
<path fill-rule="evenodd" clip-rule="evenodd" d="M690.78 530.098C690.796 530.144 690.817 530.188 690.835 530.234C690.826 530.211 690.817 530.193 690.808 530.17C691.047 530.768 690.895 530.379 690.78 530.098Z" fill="#C5CFD6"/>
<path fill-rule="evenodd" clip-rule="evenodd" d="M690.831 530.237C690.84 530.258 690.85 530.281 690.859 530.302C690.926 530.431 690.831 530.237 690.831 530.237Z" fill="#C5CFD6"/>
<path fill-rule="evenodd" clip-rule="evenodd" d="M690.858 530.294C690.858 530.292 690.858 530.292 690.856 530.289C690.858 530.292 690.858 530.292 690.858 530.294Z" fill="#C5CFD6"/>
<path fill-rule="evenodd" clip-rule="evenodd" d="M690.869 530.311C690.883 530.339 690.804 530.204 690.869 530.311V530.311Z" fill="#C5CFD6"/>
<path fill-rule="evenodd" clip-rule="evenodd" d="M690.859 530.294L690.854 530.289C690.857 530.292 690.857 530.294 690.859 530.294Z" fill="#C5CFD6"/>
<path d="M613.711 441.631H768.003C770.546 441.631 772.609 443.693 772.609 446.237V545.26C772.609 547.804 770.546 549.866 768.003 549.866H613.711C611.168 549.866 609.106 547.804 609.106 545.26V446.237C609.106 443.693 611.168 441.631 613.711 441.631Z" fill="#DDE3E9"/>
<path fill-rule="evenodd" clip-rule="evenodd" d="M711.899 472.72L759.171 549.866H664.627L711.899 472.72Z" fill="#AFB9C5"/>
<path fill-rule="evenodd" clip-rule="evenodd" d="M663.159 493.384L704.95 549.866H621.368L663.159 493.384Z" fill="#C5CFD6"/>
<path d="M645.376 493.446C636.791 493.446 629.831 486.486 629.831 477.901C629.831 469.317 636.791 462.357 645.376 462.357C653.961 462.357 660.92 469.317 660.92 477.901C660.92 486.486 653.961 493.446 645.376 493.446Z" fill="white"/>
<path fill-rule="evenodd" clip-rule="evenodd" d="M847.646 513.144C846.529 515.506 845.533 517.916 844.653 520.361C844.622 515.325 844.85 510.251 845.471 505.108C846.534 496.298 848.158 487.534 849.683 478.784C850.779 472.496 850.71 461.202 854.871 456.191C856.012 455.108 856.286 457.233 856.286 458.155C856.301 458.35 856.283 454.391 855.176 455.081C848.593 459.239 846.46 472.314 844.353 478.86C841.278 488.416 838.662 498.184 837.585 508.125C837.312 510.636 837.164 513.147 837.13 515.653C836.906 514.983 836.696 514.307 836.464 513.639C832.665 502.741 827.537 492.106 821.143 482.298C819.569 479.885 799.777 456.074 798.228 459.718C798.381 460.247 798.701 460.687 799.189 461.036C799.218 461.076 799.218 461.054 799.202 460.994C800.364 463.291 803.669 466.838 804.698 468.85C807.289 473.915 809.302 479.289 811.348 484.56C815.672 495.7 819.682 506.953 823.569 518.229C824.475 520.855 825.418 523.467 826.381 526.071C816.458 508.566 803.221 492.674 785 483.576C791.223 487.449 795.304 494.735 799.507 500.313C804.576 507.042 809.915 513.59 814.993 520.311C820.983 528.24 828.032 536.59 833.793 545.364C839.374 559.696 844.798 574.043 848.146 589.108C846.774 583.903 848.038 576.71 847.803 571.247C847.617 566.899 847.201 562.587 846.632 558.282C847.336 560.224 847.943 562.167 848.217 563.974C847.966 560.943 847.677 557.931 847.367 554.934C848.164 552.129 848.947 549.512 849.475 547.355C852.184 536.294 855.41 525.423 859.804 514.828C863.869 505.027 868.532 495.35 873.613 485.969C875.983 481.595 878.386 477.238 880.773 472.873C882.336 470.015 883.824 465.44 886 462.702C871.935 478.43 856.569 494.272 847.646 513.144Z" fill="#E88080"/>
<path fill-rule="evenodd" clip-rule="evenodd" d="M805.837 535.099C805.837 570.288 808.107 598.814 838.58 598.814C869.053 598.814 871.324 570.288 871.324 535.099" fill="#F2F2F2"/>
<path fill-rule="evenodd" clip-rule="evenodd" d="M69.2026 510.547C68.2183 512.479 67.3406 514.449 66.5654 516.449C66.5381 512.33 66.7387 508.181 67.2866 503.975C68.2232 496.771 69.6537 489.605 70.9979 482.45C71.9639 477.308 71.9029 468.072 75.5692 463.974C76.5745 463.088 76.8166 464.826 76.8166 465.58C76.8292 465.739 76.8137 462.502 75.8379 463.066C70.0374 466.466 68.158 477.158 66.3009 482.512C63.5915 490.326 61.2862 498.313 60.337 506.443C60.0971 508.496 59.9666 510.549 59.9364 512.599C59.7393 512.051 59.5541 511.498 59.3492 510.952C56.0014 502.04 51.4834 493.343 45.8485 485.323C44.4615 483.35 27.0216 463.878 25.6563 466.858C25.791 467.291 26.0731 467.65 26.5031 467.936C26.5284 467.968 26.5291 467.95 26.5143 467.902C27.5386 469.78 30.4508 472.681 31.3579 474.326C33.6407 478.467 35.415 482.862 37.218 487.173C41.0274 496.282 44.5611 505.484 47.9868 514.705C48.7845 516.853 49.6159 518.988 50.464 521.118C41.7206 506.803 30.0565 493.807 14 486.368C19.4841 489.535 23.0795 495.493 26.783 500.055C31.2498 505.557 35.9545 510.912 40.4297 516.408C45.7082 522.892 51.9191 529.72 56.9962 536.895C61.9141 548.614 66.6931 560.346 69.6432 572.666C68.4344 568.41 69.5484 562.527 69.3415 558.06C69.1773 554.505 68.8111 550.978 68.3095 547.458C68.9297 549.046 69.4643 550.635 69.7063 552.113C69.4853 549.634 69.2306 547.171 68.957 544.721C69.6593 542.427 70.3489 540.286 70.8148 538.523C73.2021 529.478 76.0448 520.588 79.916 511.924C83.4982 503.909 87.6072 495.996 92.0845 488.325C94.173 484.748 96.2903 481.185 98.3943 477.615C99.7714 475.279 101.083 471.537 103 469.298C90.6063 482.16 77.0656 495.114 69.2026 510.547Z" fill="#CC5757"/>
<path fill-rule="evenodd" clip-rule="evenodd" d="M32.3611 528.5C32.3611 557.276 34.3617 580.603 61.2142 580.603C88.0667 580.603 90.0673 557.276 90.0673 528.5" fill="#DDE3E9"/>
</svg>
