<svg width="565" height="552" viewBox="0 0 565 552" fill="none" xmlns="http://www.w3.org/2000/svg">
<path fill-rule="evenodd" clip-rule="evenodd" d="M467.966 387.249C469.814 372.77 462.909 355.983 455.058 339.604C439.773 307.72 432.36 289.336 438.006 260.992C441.328 244.322 445.069 226.802 434.501 206.229C426.806 191.248 409.548 171.61 389.899 165.9C358.618 158.726 339.387 173.378 330.769 192.119C320.089 215.348 327.568 238.859 353.225 266.747C367.682 282.459 375.415 295.779 378.223 312.021C380.472 325.01 378.253 337.986 382.926 351.482C389.912 371.658 404.423 388.078 427.412 400.505C422.156 363.952 413.604 324.934 397.594 286.589C396.184 282.865 385.209 264.964 390.601 263.709C396.54 262.328 403.803 286.834 403.742 286.675C408.23 298.07 411.852 309.428 415.294 320.756C415.271 320.749 415.246 320.738 415.221 320.731C418.779 332.372 422.213 344.068 425.444 355.751C426.669 360.6 427.789 365.432 428.733 370.252C430.119 377.325 428.786 393.96 433.939 401.119C435.042 402.651 436.197 403.859 437.386 404.822C438.98 412.648 440.422 420.43 441.604 428.122C444.689 448.211 445.702 467.955 440.834 485.18C439.413 490.207 428.289 505.217 430.932 511.243C435.763 522.263 440.227 510.036 441.816 506.503C454.959 477.239 454.309 444.567 446.497 407.642C456.998 406.586 467.216 393.114 467.966 387.249Z" fill="white"/>
<path fill-rule="evenodd" clip-rule="evenodd" d="M170.795 211.385C183.911 210.722 205.998 223.585 218.784 232.557C234.606 243.659 249.628 256.943 263.092 269.936C285.273 291.338 304.125 316.268 320.857 339.407C322.873 342.196 347.97 376.16 343.625 376.404C339.32 376.646 316.342 340.766 310.738 333.508C298.781 318.019 288.748 302.385 274.015 287.689C258.759 272.472 241.035 258.813 222.4 246.781C220.008 245.237 212.905 239.132 211.314 241.2C209.758 243.223 223.347 250.516 225.607 252.011C234.941 258.184 244.011 264.888 252.591 271.924C268.667 285.108 282.462 299.522 293.488 315.01C285.473 318.249 273.77 314.511 264.342 306.231C256.195 299.073 249.504 290.18 241.302 283.514C235.653 278.924 229.339 275.334 222.772 272.549C205.45 265.203 192.783 265.064 178.329 249.961C166.998 238.121 151.949 212.349 170.795 211.385Z" fill="white"/>
<path fill-rule="evenodd" clip-rule="evenodd" d="M220.855 156.72L225.06 159.467C226.92 155.977 228.687 152.435 229.915 148.586C234.518 134.157 235.675 109.302 213.787 92.1722C212.981 91.5395 209.843 89.4717 205.942 87.1184C204.539 85.3216 202.76 83.6268 200.684 82.1483C181.527 68.3633 153.126 63.6939 136.989 67.601C123.979 70.7518 118.266 82.3188 117.339 94.0911C116.72 101.973 118.238 114.78 129.74 122.41C144.129 131.955 151.96 121.491 156.41 115.291C162.326 107.047 168.911 100.8 183.632 102.164C187.063 102.483 190.625 103.119 194.069 103.473C199.461 104.028 205.31 104.81 208.078 101.709C211.897 97.4299 208.07 93.7108 200.799 90.2188C199.56 89.6232 186.004 85.265 189.334 83.8852C190.351 83.4634 192.643 84.1003 195.334 85.2135C201.802 88.8517 209.508 93.2038 211.447 94.8785C232.375 112.94 228.62 138.192 222.931 152.079C222.287 153.652 221.585 155.194 220.855 156.72L220.855 156.72Z" fill="white"/>
</svg>
